<?xml version="1.0" encoding="UTF-8"?>
<svg version="1.1" xmlns="http://www.w3.org/2000/svg" width="512" height="512">
<path d="M0 0 C0.81559706 -0.00367669 1.63119412 -0.00735338 2.47150624 -0.01114148 C5.21987151 -0.02220429 7.96819902 -0.02602652 10.71658325 -0.02983093 C12.68080771 -0.03609353 14.64503097 -0.04274014 16.60925293 -0.04974365 C21.95633585 -0.06717013 27.30340983 -0.07770948 32.65051413 -0.08594918 C35.98835628 -0.09109487 39.32619562 -0.09717073 42.6640358 -0.10346031 C53.09927959 -0.12251527 63.53451628 -0.13674688 73.96977413 -0.14507228 C86.03096496 -0.15485284 98.09197267 -0.1811925 110.15309894 -0.22157317 C119.46607748 -0.25168746 128.77900339 -0.26653662 138.09202969 -0.26985329 C143.65898892 -0.27220876 149.22575258 -0.28123381 154.79265976 -0.30631447 C160.02770276 -0.32951886 165.26242036 -0.33385927 170.49750137 -0.32355309 C172.42122731 -0.32305578 174.34496885 -0.32943316 176.26864624 -0.34310913 C178.89059232 -0.36070969 181.51135549 -0.35378095 184.13330078 -0.34057617 C185.28106186 -0.35703004 185.28106186 -0.35703004 186.45201004 -0.37381631 C189.91814943 -0.3315329 191.8493117 -0.10817455 194.66902351 1.98289204 C196.81129341 5.02397672 196.6490431 7.18885419 196.58425903 10.88154602 C196.5649231 12.82480774 196.5649231 12.82480774 196.54519653 14.80732727 C196.5117777 16.17061926 196.47791794 17.53390051 196.44363403 18.89717102 C196.42356111 20.27605166 196.40531171 21.65496014 196.38894653 23.03388977 C196.34178851 26.40568846 196.27597941 29.77607789 196.19363403 33.14717102 C197.85652466 32.90933899 197.85652466 32.90933899 199.55300903 32.66670227 C204.51756769 32.05105326 209.44488752 31.89029505 214.44363403 31.83467102 C215.32793091 31.80566711 216.21222778 31.77666321 217.12332153 31.7467804 C218.4033606 31.73421204 218.4033606 31.73421204 219.70925903 31.72138977 C220.47528442 31.70680725 221.24130981 31.69222473 222.0305481 31.67720032 C225.10948261 32.34615618 226.21525961 33.73130943 228.19363403 36.14717102 C228.68582535 38.70085526 228.68582535 38.70085526 228.6746521 41.63941956 C228.68290009 43.31367004 228.68290009 43.31367004 228.6913147 45.02174377 C228.66974304 46.85161835 228.66974304 46.85161835 228.6477356 48.71846008 C228.6483197 50.0065155 228.64890381 51.29457092 228.64950562 52.62165833 C228.65065316 56.15045801 228.62713807 59.6787137 228.59920979 63.20738697 C228.5742025 66.89625095 228.57185468 70.58512744 228.56710815 74.27406311 C228.55467634 81.25807891 228.52185215 88.24184422 228.4817102 95.22574973 C228.43699873 103.1772882 228.41500705 111.12883863 228.39492846 119.08047152 C228.35311953 135.43618465 228.28276372 151.79164587 228.19363403 168.14717102 C228.91146938 168.14348385 229.62930473 168.13979668 230.36889267 168.13599777 C247.82841778 168.04769375 265.28788624 167.98148438 282.7475853 167.93992233 C291.19094609 167.91928944 299.63415791 167.89115507 308.0774231 167.84541321 C315.43583851 167.80556755 322.79414604 167.7797435 330.15266633 167.77081704 C334.04967492 167.76559839 337.94637486 167.75331796 341.84328461 167.72425079 C345.51063854 167.69711731 349.17755644 167.68872166 352.84500122 167.6947403 C354.83384763 167.69311372 356.82264645 167.67158008 358.81137085 167.64949036 C359.99485107 167.65498901 361.1783313 167.66048767 362.39767456 167.66615295 C363.42639553 167.66246578 364.4551165 167.65877861 365.51501083 167.65497971 C368.91531932 168.27977916 370.09596335 169.44909881 372.19363403 172.14717102 C372.69534302 174.97773743 372.69534302 174.97773743 372.68972778 178.24873352 C372.69278931 179.45215393 372.69585083 180.65557434 372.69900513 181.89546204 C372.67660767 183.174776 372.65421021 184.45408997 372.63113403 185.77217102 C372.6091394 187.74044861 372.6091394 187.74044861 372.58670044 189.74848938 C372.39207393 199.81514266 371.6187893 209.37567784 369.19363403 219.14717102 C369.00559204 219.92254211 368.81755005 220.69791321 368.62380981 221.4967804 C363.73698771 240.98186585 355.17121962 259.02845163 343.19363403 275.14717102 C342.50011841 276.0830304 341.80660278 277.01888977 341.09207153 277.98310852 C316.22089401 309.74742138 279.49759816 331.00800045 239.340271 335.93475342 C236.04875133 336.26046136 232.78099165 336.27709212 229.47488403 336.27998352 C228.77270752 336.28094025 228.07053101 336.28189697 227.34707642 336.28288269 C225.87486684 336.28355772 224.40265416 336.28175119 222.93045044 336.27754211 C220.69909876 336.27218414 218.46794833 336.27751029 216.23660278 336.28388977 C214.7951961 336.28322887 213.35378953 336.28194746 211.91238403 336.27998352 C210.622677 336.27885559 209.33296997 336.27772766 208.00418091 336.27656555 C203.99603734 336.14046124 200.16802548 335.6668778 196.19363403 335.14717102 C196.19732121 335.8701601 196.20100838 336.59314919 196.20480728 337.33804703 C196.29311048 354.92275044 196.35932027 372.5073976 196.40088272 390.09227371 C196.4215158 398.59616809 196.44965053 407.09991455 196.49539185 415.60371399 C196.53523692 423.01486711 196.56106142 430.42591311 196.56998801 437.83717036 C196.57520676 441.76212366 196.58748782 445.68677051 196.61655426 449.61162567 C196.64368683 453.30524362 196.65208357 456.99842863 196.64606476 460.69213676 C196.64769141 462.69529615 196.66922552 464.69840828 196.6913147 466.70144653 C196.68581604 467.89334091 196.68031738 469.08523529 196.6746521 470.31324768 C196.67833927 471.34934299 196.68202644 472.38543831 196.68582535 473.45293045 C196.19363403 476.14717102 196.19363403 476.14717102 194.81835556 478.48004532 C190.65083776 481.12709795 186.55529511 480.69772962 181.71707153 480.65510559 C180.63841827 480.66134555 179.55976501 480.66758552 178.44842529 480.67401457 C174.82160811 480.6900131 171.19545661 480.67731296 167.56863403 480.66474915 C164.97357795 480.67016719 162.37852494 480.67728805 159.78347778 480.68598938 C153.45927839 480.70379011 147.13526873 480.6999278 140.81106186 480.68833882 C135.6719685 480.67931083 130.53292836 480.67807773 125.39382935 480.68243408 C124.29733157 480.68335348 124.29733157 480.68335348 123.17868233 480.68429145 C121.69374337 480.68557033 120.20880443 480.68686719 118.72386551 480.68818182 C104.79459494 480.69959216 90.86542961 480.68646682 76.9361763 480.66498035 C64.98027616 480.64710893 53.02453137 480.65021291 41.06863403 480.6686554 C27.18973227 480.69005413 13.31092279 480.69849348 -0.56799316 480.68620634 C-2.04751585 480.68493212 -3.52703856 480.68367464 -5.00656128 480.68243408 C-5.73454359 480.68181698 -6.4625259 480.68119988 -7.21256828 480.68056408 C-12.34639574 480.67710817 -17.48016475 480.68294467 -22.61398315 480.69235229 C-29.5218073 480.7047323 -36.4293326 480.69593748 -43.33712769 480.67277527 C-45.87683625 480.66747278 -48.41656945 480.66902806 -50.95626831 480.67782593 C-54.414451 480.68870372 -57.87168196 480.67511067 -61.32980347 480.65510559 C-62.84904922 480.66848992 -62.84904922 480.66848992 -64.39898682 480.68214464 C-65.32410065 480.67171365 -66.24921448 480.66128266 -67.20236206 480.65053558 C-68.00064423 480.64988617 -68.79892639 480.64923676 -69.62139893 480.64856768 C-72.77546001 479.92478757 -73.91097154 478.7509765 -75.80636597 476.14717102 C-76.31121463 473.04347444 -76.31121463 473.04347444 -76.31811047 469.305439 C-76.32482302 468.61436393 -76.33153557 467.92328886 -76.33845153 467.21127212 C-76.3561265 464.88409821 -76.34520101 462.55793211 -76.33448792 460.23072815 C-76.34124209 458.5500513 -76.34973132 456.86938066 -76.35981113 455.18872046 C-76.38239507 450.56127385 -76.37986497 445.93412571 -76.37324178 441.3066411 C-76.37037427 436.3194234 -76.3904027 431.33229032 -76.40739441 426.34510803 C-76.43679414 416.57050885 -76.44404273 406.79601284 -76.4428189 397.02137402 C-76.44198742 389.07720651 -76.44783624 381.13307171 -76.4584446 373.18891144 C-76.49114113 348.2206423 -76.50009991 323.25247377 -76.49135486 298.28418633 C-76.48537381 278.57976887 -76.51576119 258.87560029 -76.56297757 239.17124489 C-76.61105915 218.94835722 -76.63315488 198.72558943 -76.62766677 178.50264335 C-76.62508836 167.14522858 -76.6331125 155.78805212 -76.66873741 144.43068695 C-76.69883109 134.76029506 -76.70464604 125.09026545 -76.6789284 115.41985443 C-76.66649016 110.48504046 -76.66535423 105.55090777 -76.6946373 100.6161499 C-76.72115807 96.09796552 -76.71533954 91.58101702 -76.68380735 87.06287548 C-76.6780731 85.42894415 -76.68414965 83.79491952 -76.70326336 82.16108993 C-76.85293571 68.4395157 -76.85293571 68.4395157 -72.4438343 63.32034588 C-71.25920189 62.2315122 -70.04773975 61.17084278 -68.80636597 60.14717102 C-67.7728366 59.09258858 -66.74823022 58.02908191 -65.73817444 56.95199585 C-64.70375393 55.9117783 -63.66674186 54.87413269 -62.62741089 53.83882141 C-62.05414063 53.26379883 -61.48087036 52.68877625 -60.89022827 52.09632874 C-59.02491017 50.22666574 -57.15602609 48.36061734 -55.28683472 46.49482727 C-53.97869012 45.18600807 -52.67069392 43.87704054 -51.36283875 42.56793213 C-48.63705728 39.84068418 -45.90949469 37.11523385 -43.18063354 34.3910675 C-39.67891425 30.895079 -36.18174948 27.39457406 -32.6858778 23.8927393 C-29.99317061 21.19642707 -27.29809688 18.5024905 -24.6022892 15.80927849 C-23.31092191 14.51857887 -22.02029868 13.22713438 -20.7304287 11.93493843 C-18.93547206 10.13745258 -17.13735948 8.3431856 -15.33834839 6.54975891 C-14.53808983 5.746464 -14.53808983 5.746464 -13.72166443 4.92694092 C-9.05897385 0.29113405 -6.3999058 -0.00153307 0 0 Z M4.19363403 16.14717102 C3.86363403 35.94717102 3.53363403 55.74717102 3.19363403 76.14717102 C-11.68550871 91.02631377 -38.76700243 79.79651496 -59.80636597 80.14717102 C-59.80636597 206.86717102 -59.80636597 333.58717102 -59.80636597 464.14717102 C19.39363403 464.14717102 98.59363403 464.14717102 180.19363403 464.14717102 C180.19363403 420.25717102 180.19363403 376.36717102 180.19363403 331.14717102 C173.92363403 328.83717102 167.65363403 326.52717102 161.19363403 324.14717102 C122.40481389 307.24632796 93.50653596 277.59181708 77.95925903 238.19013977 C71.45126988 220.82443402 68.5801207 203.12439753 68.69363403 184.64717102 C68.69539642 183.87124603 68.69715881 183.09532104 68.69897461 182.29588318 C68.90115134 142.06168488 84.39891013 105.97132914 112.19363403 77.14717102 C113.26677856 75.9792804 113.26677856 75.9792804 114.36160278 74.78779602 C132.15999959 55.95422041 156.15641346 45.48661489 180.19363403 37.14717102 C180.19363403 30.21717102 180.19363403 23.28717102 180.19363403 16.14717102 C122.11363403 16.14717102 64.03363403 16.14717102 4.19363403 16.14717102 Z M-16.04098511 32.25239563 C-16.72161514 32.9298735 -17.40224518 33.60735138 -18.10350037 34.30535889 C-18.84204758 35.04593033 -19.58059479 35.78650177 -20.34152222 36.54951477 C-21.0947728 37.30180862 -21.84802338 38.05410248 -22.62409973 38.82919312 C-24.22002208 40.4244333 -25.81467567 42.02094362 -27.40817261 43.61860657 C-29.85815121 46.07393288 -32.31340367 48.52389377 -34.76925659 50.9733429 C-36.31449922 52.5192463 -37.85943164 54.06545987 -39.40402222 55.61201477 C-40.14459366 56.35056198 -40.8851651 57.08910919 -41.6481781 57.85003662 C-42.32565598 58.53066666 -43.00313385 59.21129669 -43.70114136 59.91255188 C-44.3021315 60.51433762 -44.90312164 61.11612335 -45.52232361 61.73614502 C-46.91853986 62.95246898 -46.91853986 62.95246898 -46.80636597 64.14717102 C-35.25636597 64.14717102 -23.70636597 64.14717102 -11.80636597 64.14717102 C-11.80636597 52.59717102 -11.80636597 41.04717102 -11.80636597 29.14717102 C-13.65433798 29.14717102 -14.80422609 31.01727167 -16.04098511 32.25239563 Z M199.56472778 49.84638977 C198.76518677 50.000755 197.96564575 50.15512024 197.14187622 50.31416321 C196.3133313 50.48593079 195.48478638 50.65769836 194.63113403 50.83467102 C193.7548938 51.01546204 192.87865356 51.19625305 191.9758606 51.38252258 C166.78831089 56.77657281 145.18987653 68.99671726 126.19363403 86.14717102 C125.45500122 86.81361633 124.71636841 87.48006165 123.95535278 88.16670227 C101.93787038 109.12522761 86.59297224 141.15055931 85.01663208 171.56196594 C84.73254828 188.09202119 84.48511341 204.1331842 89.19363403 220.14717102 C89.40794067 220.87887512 89.62224731 221.61057922 89.8430481 222.36445618 C94.85134008 238.85099522 102.66666657 256.95798945 115.19363403 269.14717102 C131.94465039 256.19530153 148.03536198 242.58288638 163.69363403 228.33467102 C164.55914643 227.54928758 164.55914643 227.54928758 165.44214392 226.74803782 C194.14887048 200.63057046 216.55753897 176.35818757 218.75173712 136.18232179 C219.24242368 125.62393917 218.90027434 115.12797892 218.25613403 104.58467102 C218.21498348 103.89105453 218.17383293 103.19743804 218.13143539 102.48280287 C217.0517696 84.58870358 215.09899012 66.83963232 212.19363403 49.14717102 C210.92532242 49.14123428 209.6570108 49.13529755 208.3502655 49.12918091 C207.63684022 49.12584149 206.92341494 49.12250208 206.1883707 49.11906147 C203.91818695 49.15105258 201.79292941 49.41458762 199.56472778 49.84638977 Z M167.50613403 232.52217102 C166.98225806 233.09969289 166.45838208 233.67721477 165.91863108 234.2722373 C142.07566182 257.12433195 142.07566182 257.12433195 127.19363403 283.14717102 C130.66111507 286.38392613 134.44994498 289.23809305 138.19363403 292.14717102 C138.92582153 292.72853821 139.65800903 293.3099054 140.41238403 293.90888977 C169.16287807 315.41967607 205.25734487 323.20009473 240.46560669 318.57441711 C274.97358536 313.16999948 307.57494366 293.97209152 328.56082153 265.99092102 C343.9247989 244.5679555 355.45286615 218.55795107 355.23660278 191.77607727 C355.23350098 191.0397406 355.23039917 190.30340393 355.22720337 189.54475403 C355.21917443 187.74554281 355.20684662 185.94635164 355.19363403 184.14717102 C335.450181 181.13323191 315.68875272 179.1887904 295.75613403 178.08467102 C295.01900287 178.0426761 294.28187171 178.00068117 293.52240324 177.95741367 C236.95764814 174.82499982 205.15714691 190.86161861 167.50613403 232.52217102 Z " fill="#FECC64" transform="translate(91.80636596679688,15.852828979492188)"/>
<path d="M0 0 C0.84183838 -0.00306152 1.68367676 -0.00612305 2.55102539 -0.00927734 C3.89861938 0.02431885 3.89861938 0.02431885 5.2734375 0.05859375 C6.20986084 0.07325684 7.14628418 0.08791992 8.11108398 0.10302734 C45.49154038 1.09629664 80.13311672 17.59562099 106.6484375 43.49609375 C107.49664062 44.28242187 108.34484375 45.06875 109.21875 45.87890625 C134.94754098 70.31722495 150.86494319 107.54103261 152.0859375 142.87109375 C152.15309299 146.33631711 152.13407133 147.86586597 150.00646973 150.6269455 C146.9641182 153.03853511 145.27994152 152.99879872 141.42382812 153.00402832 C140.14515869 153.01530762 138.86648926 153.02658691 137.54907227 153.03820801 C136.13427508 153.03043098 134.71948013 153.02223832 133.3046875 153.01367188 C131.81306271 153.01909267 130.32144327 153.02621509 128.82983398 153.03491211 C124.78021122 153.05315379 120.73099589 153.04607465 116.68136597 153.03339577 C112.44446714 153.02327239 108.20760332 153.0326596 103.97070312 153.03894043 C96.855405 153.04621878 89.74027292 153.03662427 82.625 153.01757812 C74.3974095 152.99580894 66.17021547 153.00286018 57.94263458 153.02488375 C50.88009496 153.04303245 43.81767473 153.04559869 36.75511932 153.03512907 C32.53630575 153.02889119 28.31767857 153.02806649 24.09887695 153.04127502 C20.13263377 153.05282531 16.16690201 153.04482337 12.20071411 153.021698 C10.74464772 153.01640643 9.28853833 153.01793241 7.83248901 153.02674866 C5.84602388 153.03766809 3.85946474 153.02155075 1.87304688 153.00402832 C0.76102905 153.00252022 -0.35098877 153.00101212 -1.4967041 152.99945831 C-5.09432161 152.36513152 -6.2606484 151.47240261 -8.3515625 148.49609375 C-8.85492706 145.76617432 -8.85492706 145.76617432 -8.85949707 142.57519531 C-8.87077637 141.36383911 -8.88205566 140.15248291 -8.89367676 138.90441895 C-8.88589984 137.56518315 -8.87770718 136.22594972 -8.86914062 134.88671875 C-8.87456178 133.4739103 -8.88168441 132.06110751 -8.89038086 130.64831543 C-8.90861833 126.81355432 -8.90154521 122.9792236 -8.88886452 119.14445496 C-8.87873893 115.13177326 -8.88812896 111.11912846 -8.89440918 107.10644531 C-8.90168689 100.36777122 -8.89209472 93.62927247 -8.87304688 86.890625 C-8.85127777 79.09927951 -8.85832907 71.3083527 -8.8803525 63.51701736 C-8.89850305 56.82814576 -8.90106655 50.13940021 -8.89059782 43.45051193 C-8.88436095 39.45526008 -8.88353244 35.46020504 -8.89674377 31.46496582 C-8.90829679 27.70883074 -8.90028731 23.95323555 -8.87716675 20.19715881 C-8.87187661 18.81849565 -8.87339874 17.43978707 -8.88221741 16.06114197 C-8.89314248 14.17977519 -8.87701457 12.29830914 -8.85949707 10.41699219 C-8.85798897 9.36396912 -8.85648087 8.31094604 -8.85492706 7.22601318 C-7.93916132 2.25950008 -4.93022211 -0.01227485 0 0 Z M7.6484375 17.49609375 C7.6484375 56.76609375 7.6484375 96.03609375 7.6484375 136.49609375 C49.2284375 136.49609375 90.8084375 136.49609375 133.6484375 136.49609375 C133.6484375 110.9850535 120.09927596 84.42887689 103.6484375 65.49609375 C102.95105469 64.67753906 102.25367188 63.85898438 101.53515625 63.015625 C79.70720911 38.00847419 48.80412563 21.2047837 15.6484375 17.49609375 C13.0084375 17.49609375 10.3684375 17.49609375 7.6484375 17.49609375 Z " fill="#FECC64" transform="translate(344.3515625,15.50390625)"/>
<path d="M0 0 C14.35546434 11.70990834 26.06794902 27.89121936 28.30664062 46.72021484 C29.76601625 68.44058871 26.97909464 88.67535502 12.32739258 105.62890625 C-0.87957734 120.09489289 -17.32732525 130.10586173 -37.24804688 131.03271484 C-57.93878131 131.62467515 -76.50369154 127.612305 -92.13085938 113.34521484 C-106.8738166 99.20544466 -115.50400135 82.70692505 -116.09399414 62.08496094 C-116.33065412 41.68831843 -111.22582647 23.74080029 -96.89331055 8.796875 C-71.34187485 -16.78517169 -29.7766123 -22.50418132 0 0 Z M-82.69335938 18.72021484 C-94.43291957 30.77599214 -99.12793221 44.59822428 -99.05688477 61.06762695 C-98.80277101 73.37463862 -94.94922894 82.84417016 -87.69335938 92.72021484 C-87.19320312 93.42791016 -86.69304687 94.13560547 -86.17773438 94.86474609 C-78.54810568 104.63298283 -65.84051735 111.77305895 -53.69335938 113.72021484 C-37.00519443 115.27038505 -23.43272953 112.73665889 -9.69335938 102.72021484 C-9.05914062 102.28193359 -8.42492187 101.84365234 -7.77148438 101.39208984 C2.44374187 93.61352307 8.57059502 80.97815021 11.30664062 68.72021484 C12.72194438 52.05867343 10.35909609 38.40272367 0.30664062 24.72021484 C-0.19351563 24.01251953 -0.69367188 23.30482422 -1.20898438 22.57568359 C-10.20472483 11.05840983 -24.44575027 4.94263204 -38.56835938 2.84521484 C-55.60372578 1.73902222 -70.08658149 7.54196703 -82.69335938 18.72021484 Z " fill="#FECC65" transform="translate(195.693359375,333.27978515625)"/>
<path d="M0 0 C5.28 0 10.56 0 16 0 C16 2.97 16 5.94 16 9 C16.680625 9.20625 17.36125 9.4125 18.0625 9.625 C24.28637196 12.53830177 28.28024436 16.68617194 31.37109375 22.77734375 C32 25 32 25 32 32 C26.39 32 20.78 32 15 32 C14.34 30.35 13.68 28.7 13 27 C10.20129973 25.60064987 8.09501208 25.74734595 5 26 C3 27 3 27 2 29 C1.47520392 33.03378207 1.47520392 33.03378207 3.12890625 36.59765625 C5.72655804 38.54453933 8.13437031 38.84732828 11.3125 39.4375 C19.76352785 41.26449604 25.09990698 44.90076885 30 52 C33.22307561 58.44615122 33.12671819 66.535914 31.3828125 73.4453125 C29.02324135 78.77000846 24.78686321 82.77447694 20 86 C18.02 86.495 18.02 86.495 16 87 C16 89.97 16 92.94 16 96 C10.72 96 5.44 96 0 96 C0 93.03 0 90.06 0 87 C-1.0209375 86.690625 -1.0209375 86.690625 -2.0625 86.375 C-8.28637196 83.46169823 -12.28024436 79.31382806 -15.37109375 73.22265625 C-16 71 -16 71 -16 64 C-10.39 64 -4.78 64 1 64 C1.66 65.65 2.32 67.3 3 69 C5.79870027 70.39935013 7.90498792 70.25265405 11 70 C13 69 13 69 14 67 C14.52471794 62.96051675 14.52471794 62.96051675 12.86328125 59.39453125 C10.29398476 57.47159865 7.96238967 57.23032976 4.8125 56.6875 C-3.1759382 54.97251827 -8.06842372 51.83678634 -12.9375 45.3125 C-16.95493125 38.86026193 -16.56857176 32.41615333 -16 25 C-14.34587561 18.38350245 -9.54647373 13.73737 -4 10 C-2.68 9.67 -1.36 9.34 0 9 C0 6.03 0 3.06 0 0 Z " fill="#FECC65" transform="translate(144,344)"/>
<path d="M0 0 C42.24 0 84.48 0 128 0 C128 5.28 128 10.56 128 16 C85.76 16 43.52 16 0 16 C0 10.72 0 5.44 0 0 Z " fill="#FECC64" transform="translate(368,480)"/>
<path d="M0 0 C42.24 0 84.48 0 128 0 C128 5.28 128 10.56 128 16 C85.76 16 43.52 16 0 16 C0 10.72 0 5.44 0 0 Z " fill="#FFCC64" transform="translate(368,432)"/>
<path d="M0 0 C42.24 0 84.48 0 128 0 C128 5.28 128 10.56 128 16 C85.76 16 43.52 16 0 16 C0 10.72 0 5.44 0 0 Z " fill="#FECC64" transform="translate(368,384)"/>
<path d="M0 0 C26.4 0 52.8 0 80 0 C80 5.28 80 10.56 80 16 C53.6 16 27.2 16 0 16 C0 10.72 0 5.44 0 0 Z " fill="#FECC64" transform="translate(64,272)"/>
<path d="M0 0 C26.4 0 52.8 0 80 0 C80 5.28 80 10.56 80 16 C53.6 16 27.2 16 0 16 C0 10.72 0 5.44 0 0 Z " fill="#FECC64" transform="translate(64,224)"/>
<path d="M0 0 C26.4 0 52.8 0 80 0 C80 5.28 80 10.56 80 16 C53.6 16 27.2 16 0 16 C0 10.72 0 5.44 0 0 Z " fill="#FFCC64" transform="translate(64,176)"/>
<path d="M0 0 C26.4 0 52.8 0 80 0 C80 5.28 80 10.56 80 16 C53.6 16 27.2 16 0 16 C0 10.72 0 5.44 0 0 Z " fill="#FFCC64" transform="translate(64,128)"/>
<path d="M0 0 C10.56 0 21.12 0 32 0 C32 5.28 32 10.56 32 16 C21.44 16 10.88 16 0 16 C0 10.72 0 5.44 0 0 Z " fill="#FECC64" transform="translate(320,480)"/>
<path d="M0 0 C10.56 0 21.12 0 32 0 C32 5.28 32 10.56 32 16 C21.44 16 10.88 16 0 16 C0 10.72 0 5.44 0 0 Z " fill="#FECC64" transform="translate(320,432)"/>
<path d="M0 0 C10.56 0 21.12 0 32 0 C32 5.28 32 10.56 32 16 C21.44 16 10.88 16 0 16 C0 10.72 0 5.44 0 0 Z " fill="#FFCC64" transform="translate(320,384)"/>
</svg>
