<?xml version="1.0" encoding="UTF-8"?>
<svg version="1.1" xmlns="http://www.w3.org/2000/svg" width="512" height="512">
<path d="M0 0 C4.19911872 1.76230069 8.10859456 3.93551343 12.0625 6.1875 C13.2071875 6.82171875 14.351875 7.4559375 15.53125 8.109375 C19.03339359 10.05109097 22.51727093 12.02366761 26 14 C27.96738477 15.11078893 29.93482902 16.22147253 31.90234375 17.33203125 C34.70429268 18.91620633 37.50479866 20.50273301 40.30175781 22.09570312 C48.68364028 26.85977686 57.16485081 31.42890627 65.66235352 35.98266602 C73.98661681 40.44553601 82.2576075 44.99387587 90.50097656 49.60400391 C95.60024815 52.4525419 100.70677929 55.28804304 105.8125 58.125 C107.5296521 59.07922852 107.5296521 59.07922852 109.28149414 60.05273438 C121.28769963 66.72223425 133.31459094 73.35413091 145.34277344 79.98388672 C148.98160835 81.98967465 152.61980874 83.99661129 156.2578125 86.00390625 C157.15466766 86.49874008 157.15466766 86.49874008 158.06964111 87.00357056 C161.08364195 88.66657789 164.09753923 90.32977267 167.11132812 91.99316406 C172.60302775 95.02394043 178.09540257 98.05345975 183.59120178 101.07679749 C186.07298967 102.44220109 188.5542619 103.80854026 191.03549194 105.17495728 C192.25597417 105.84676211 193.47669547 106.5181328 194.69766235 107.1890564 C201.02530647 110.66649892 207.33169131 114.1735682 213.58203125 117.7890625 C214.61537598 118.38436768 215.6487207 118.97967285 216.71337891 119.59301758 C218.62069156 120.69572674 220.52319468 121.80682199 222.41943359 122.9284668 C227.48136567 125.85225936 232.2245926 127.79777657 237.85961914 129.33520508 C243.38440739 131.05118528 247.53420242 135.73011653 250.5 140.5625 C253.28718052 146.9456411 253.08483809 154.77591171 251.375 161.43359375 C249.04467638 166.77045096 244.78301744 170.77706833 240 174 C238.67480309 174.3643378 237.34177631 174.70246809 236 175 C236.00888245 175.58358276 236.01776489 176.16716553 236.0269165 176.76843262 C236.11573525 182.86830809 236.17587693 188.96799844 236.21972656 195.06835938 C236.23978317 197.34187284 236.26703538 199.6153351 236.30175781 201.88867188 C236.35053712 205.16549349 236.37302897 208.44163025 236.390625 211.71875 C236.41127014 212.72740112 236.43191528 213.73605225 236.45318604 214.77526855 C236.4555372 222.24915975 234.97751675 227.60958542 230 233.27734375 C229.34 233.82519531 228.68 234.37304688 228 234.9375 C227.34 235.50339844 226.68 236.06929687 226 236.65234375 C224 238 224 238 220 239 C220 303.02 220 367.04 220 433 C221.65 433.66 223.3 434.32 225 435 C230.28623878 438.45089184 234.47629093 442.77587932 236 449 C236.43975222 454.3284438 236.23304605 459.66583482 236 465 C236.75152344 465.27585937 237.50304687 465.55171875 238.27734375 465.8359375 C240.76504026 466.89954375 242.49793304 467.91011608 244.5625 469.625 C245.12066406 470.07101562 245.67882812 470.51703125 246.25390625 470.9765625 C252.50439596 478.21985931 252.61956986 485.45344327 252.5 494.75 C252.51546875 495.96816406 252.5309375 497.18632812 252.546875 498.44140625 C252.53914062 500.19517578 252.53914062 500.19517578 252.53125 501.984375 C252.52673828 503.04366211 252.52222656 504.10294922 252.51757812 505.19433594 C251.84602939 508.83463689 250.9637542 509.79044609 248 512 C245.08929519 512.39191054 242.55782986 512.53755941 239.64782715 512.50336456 C238.79346982 512.50917833 237.93911249 512.51499209 237.05886555 512.52098203 C234.17633135 512.53565972 231.29463833 512.52166066 228.41210938 512.50793457 C226.33260409 512.51254041 224.25310205 512.51889118 222.17360687 512.52684355 C216.44388556 512.54360347 210.71442937 512.53526025 204.98470688 512.52289867 C198.8114819 512.51387771 192.63830369 512.5278032 186.46508789 512.53881836 C175.06561315 512.55560886 163.66624697 512.55410901 152.26677489 512.54317249 C141.73667871 512.53311935 131.20661367 512.53047921 120.67651367 512.53526306 C119.97865035 512.5355686 119.28078703 512.53587414 118.56177634 512.53618894 C115.7290851 512.53743425 112.89639388 512.53870784 110.06370267 512.540028 C83.4784206 512.55227032 56.89319263 512.54116014 30.30791891 512.51964041 C6.67660445 512.50065727 -16.9546238 512.50235576 -40.5859375 512.52148438 C-67.12187778 512.54289226 -93.65777024 512.55140218 -120.19371796 512.53903532 C-123.02131652 512.53775241 -125.84891509 512.53650105 -128.67651367 512.53526306 C-129.37276582 512.53494675 -130.06901797 512.53463044 -130.78636867 512.53430455 C-141.31112411 512.52975025 -151.83584504 512.53508395 -162.3605957 512.54518127 C-174.3249731 512.55660237 -186.28924863 512.5534069 -198.25362206 512.5320583 C-204.36240802 512.52151871 -210.47101865 512.51747552 -216.57980347 512.53065491 C-222.16578634 512.54252444 -227.75143043 512.53610639 -233.33738232 512.5147447 C-235.36423499 512.51025548 -237.39111596 512.51259643 -239.41795063 512.52224785 C-242.16165651 512.53431639 -244.90418405 512.52203461 -247.64782715 512.50336456 C-248.84323514 512.51741156 -248.84323514 512.51741156 -250.06279278 512.53174233 C-253.60070356 512.48323661 -255.61442758 512.28745402 -258.48966217 510.14389372 C-260.49031636 507.30400594 -260.51652366 505.44190812 -260.53125 501.984375 C-260.53640625 500.81519531 -260.5415625 499.64601563 -260.546875 498.44140625 C-260.53140625 497.22324219 -260.5159375 496.00507813 -260.5 494.75 C-260.51546875 493.54730469 -260.5309375 492.34460938 -260.546875 491.10546875 C-260.51032152 482.78041427 -259.54476782 477.03632742 -254 470.72265625 C-253.34 470.17480469 -252.68 469.62695312 -252 469.0625 C-251.34 468.49660156 -250.68 467.93070312 -250 467.34765625 C-247.96572276 465.97690303 -246.39847889 465.42294605 -244 465 C-244.04640625 463.9378125 -244.0928125 462.875625 -244.140625 461.78125 C-244.61718839 446.51497502 -244.61718839 446.51497502 -240 441 C-236.221492 437.05114942 -233.37277178 434.34319295 -228 433 C-228 368.98 -228 304.96 -228 239 C-229.65 238.34 -231.3 237.68 -233 237 C-234.87890625 235.7734375 -234.87890625 235.7734375 -236.5625 234.375 C-237.12066406 233.92898437 -237.67882812 233.48296875 -238.25390625 233.0234375 C-243.90070975 226.47971443 -244.56266416 220.12399583 -244.390625 211.71875 C-244.38496521 210.66465942 -244.37930542 209.61056885 -244.37347412 208.52453613 C-244.35121734 205.18254746 -244.30103977 201.84166053 -244.25 198.5 C-244.22992123 196.2239739 -244.21167288 193.94793087 -244.1953125 191.671875 C-244.1513878 186.11421218 -244.08458337 180.55718483 -244 175 C-244.9485083 174.70053467 -245.8970166 174.40106934 -246.87426758 174.0925293 C-252.53556268 172.11375123 -255.79531823 167.90417442 -258.9375 162.9375 C-261.36666915 156.22692023 -261.37591485 147.10680402 -258.5 140.5625 C-254.98408664 134.83377404 -250.22291353 130.32560267 -243.625 128.6875 C-236.01107074 126.7466945 -229.51583791 122.45563749 -222.75683594 118.57324219 C-217.59345078 115.62665576 -212.38711224 112.75700649 -207.1875 109.875 C-205.44645806 108.90775448 -203.70541668 107.94050795 -201.96443176 106.97315979 C-190.54277058 100.6286662 -179.09966997 94.32301839 -167.65722656 88.01611328 C-162.20739394 85.0120725 -156.75899316 82.00543653 -151.31048584 78.99899292 C-148.29038271 77.33255534 -145.27018665 75.66628621 -142.25 74 C-141.04166622 73.33333414 -139.83333289 72.66666747 -138.625 72 C-73.375 36 -73.375 36 -71.56277466 35.00015259 C-70.35352461 34.33297945 -69.14427575 33.66580415 -67.93502808 32.99862671 C-64.92823017 31.33969152 -61.92141213 29.68079284 -58.91455078 28.02197266 C-53.30996314 24.92999335 -47.7055702 21.8376628 -42.10186768 18.74407959 C-39.48799161 17.3010901 -36.8740046 15.85830167 -34.26000977 14.41552734 C-33.02769555 13.73528862 -31.7954342 13.0549541 -30.56323242 12.37451172 C-27.75433231 10.82340366 -24.94405094 9.27528193 -22.12792969 7.73730469 C-20.06847905 6.59345121 -18.02646504 5.41752962 -16.00488281 4.20800781 C-6.01472731 -1.66107976 -6.01472731 -1.66107976 0 0 Z M-10.07421875 20.60546875 C-11.1223877 21.17015869 -12.17055664 21.73484863 -13.25048828 22.31665039 C-14.38470215 22.93403076 -15.51891602 23.55141113 -16.6875 24.1875 C-17.86956932 24.82750265 -19.05169897 25.46739388 -20.23388672 26.10717773 C-28.69583892 30.69765557 -37.08670166 35.40807582 -45.4519043 40.17260742 C-53.2494886 44.60450178 -61.12651378 48.8775703 -69.02441406 53.12744141 C-75.85711053 56.8138217 -82.62914931 60.59477954 -89.375 64.4375 C-98.72871274 69.76298917 -108.17504138 74.89844134 -117.66186523 79.98242188 C-125.98630781 84.44534305 -134.25744872 88.99378707 -142.50097656 93.60400391 C-147.6002489 96.45254232 -152.7069341 99.28776305 -157.8125 102.125 C-158.93769043 102.75100098 -160.06288086 103.37700195 -161.22216797 104.02197266 C-167.50789717 107.51619973 -173.80257387 110.99316445 -180.109375 114.44921875 C-181.45079415 115.18533095 -182.79218443 115.92149576 -184.13354492 116.65771484 C-186.71501651 118.07454178 -189.29887491 119.48688632 -191.8840332 120.89697266 C-193.05950526 121.54181411 -194.23488454 122.18682472 -195.41015625 122.83203125 C-196.44277588 123.39639893 -197.47539551 123.9607666 -198.53930664 124.54223633 C-201.06851178 125.90320705 -201.06851178 125.90320705 -203 128 C-71.66 128 59.68 128 195 128 C191.77683307 125.5826248 188.79506722 123.691592 185.28515625 121.76953125 C184.13917969 121.13982422 182.99320312 120.51011719 181.8125 119.86132812 C180.56251332 119.17836104 179.31251294 118.49541903 178.0625 117.8125 C176.75893636 117.09732997 175.455554 116.38182942 174.15234375 115.66601562 C171.44487413 114.17921902 168.73663 112.69384767 166.02783203 111.20947266 C160.44132066 108.14677673 154.86434477 105.06683845 149.287323 101.98690796 C146.27533871 100.32377753 143.26263016 98.66196009 140.25 97 C139.04166325 96.33333952 137.83332992 95.66667285 136.625 95 C136.026875 94.67 135.42875 94.34 134.8125 94 C113.66666667 82.33333333 92.52083333 70.66666667 71.375 59 C70.77692032 58.67002518 70.17884064 58.34005035 69.56263733 58.00007629 C68.35384564 57.33315639 67.14505454 56.66623541 65.93626404 55.99931335 C62.92244843 54.33651241 59.90862263 52.67372995 56.89477539 51.01098633 C50.11053874 47.26808388 43.32647456 43.5248694 36.54295349 39.78067017 C33.46296228 38.0807566 30.3826362 36.38145604 27.30151367 34.68359375 C21.79671231 31.64976415 16.29519041 28.61043549 10.8046875 25.55078125 C9.86890869 25.03104736 8.93312988 24.51131348 7.96899414 23.97583008 C6.24752294 23.01945719 4.52783871 22.05985777 2.81030273 21.09643555 C2.06466064 20.68304932 1.31901855 20.26966309 0.55078125 19.84375 C-0.09205811 19.48474609 -0.73489746 19.12574219 -1.3972168 18.75585938 C-4.85076263 17.12719557 -6.93446977 18.90903305 -10.07421875 20.60546875 Z M-242 147 C-243.42041821 149.84083641 -243.31452272 151.85477278 -243 155 C-240.76793569 157.84780619 -239.45007001 158.84997666 -236 160 C-233.94492186 160.09487328 -231.88684063 160.12840221 -229.82957458 160.13028526 C-227.87965528 160.13572178 -227.87965528 160.13572178 -225.89034367 160.14126813 C-224.43918413 160.14027145 -222.98802465 160.13918932 -221.53686523 160.13803101 C-220.00198767 160.14044811 -218.46711075 160.14331007 -216.93223476 160.14658034 C-212.70341589 160.15434888 -208.47461323 160.15595357 -204.2457881 160.15663147 C-199.68949862 160.15846839 -195.1332187 160.16607355 -190.57693481 160.17311096 C-182.67849852 160.18464543 -174.78006437 160.192885 -166.88162231 160.19923019 C-154.40470974 160.20954369 -141.92782392 160.23010317 -129.45092773 160.25234985 C-125.18507394 160.25982975 -120.91922003 160.26724343 -116.65336609 160.27463722 C-115.58725934 160.27648779 -114.52115258 160.27833835 -113.42273957 160.280245 C-101.28280554 160.30117883 -89.14286856 160.32000478 -77.00292969 160.33789062 C-75.89290443 160.33952881 -74.78287917 160.34116699 -73.63921678 160.34285481 C-55.63862893 160.36915705 -37.63803903 160.38779081 -19.63744009 160.40448253 C-1.17177374 160.42188262 17.29385215 160.4507045 35.7594862 160.4893719 C47.15827637 160.51281218 58.55700061 160.52677007 69.95581508 160.52869953 C77.76164103 160.53080349 85.5674013 160.54368703 93.37319779 160.56517886 C97.88187191 160.57724659 102.39041562 160.5843336 106.89910507 160.57846642 C111.02198837 160.57319709 115.14460491 160.58155819 119.26744354 160.60102279 C120.76335273 160.60562301 122.25928777 160.60509444 123.75519192 160.59907441 C125.77998239 160.59164974 127.80481732 160.60426378 129.82957458 160.61803246 C130.95685691 160.61938898 132.08413923 160.62074551 133.24558163 160.62214315 C136 161 136 161 137.86074924 162.40277922 C139.28072654 164.39357644 139.40261407 165.56996172 139.375 168 C139.38273437 168.680625 139.39046875 169.36125 139.3984375 170.0625 C138.86527081 172.65515373 138.10987724 173.40295802 136 175 C133.29342586 175.37900752 133.29342586 175.37900752 129.94613361 175.38476086 C128.67220448 175.3942174 127.39827534 175.40367394 126.08574229 175.41341704 C124.6639569 175.40878683 123.24217239 175.40388031 121.82038879 175.39872742 C120.31636713 175.40416321 118.81234974 175.41091323 117.3083393 175.41886932 C113.16489504 175.43696264 109.02162937 175.43632929 104.87815487 175.43273985 C100.41392349 175.43211789 95.94975302 175.44871835 91.48554993 175.46325684 C83.74752672 175.48608599 76.00954866 175.49793537 68.27149391 175.50238609 C57.08349498 175.50883691 45.89557781 175.53175542 34.70761176 175.55872939 C16.5571205 175.60204102 -1.59336734 175.63198275 -19.74389648 175.65356445 C-37.37835377 175.67456105 -55.01278293 175.70182459 -72.6472168 175.73754883 C-73.73369502 175.73974765 -74.82017324 175.74194648 -75.93957504 175.74421193 C-81.38996529 175.75528126 -86.84035527 175.76647413 -92.29074514 175.77772844 C-137.52713889 175.87097548 -182.76354797 175.94232275 -228 176 C-228 181.28 -228 186.56 -228 192 C-80.16 192 67.68 192 220 192 C220 186.72 220 181.44 220 176 C217.29719849 175.97812622 217.29719849 175.97812622 214.53979492 175.95581055 C208.58846895 175.90417842 202.63742414 175.83889801 196.68635082 175.76428509 C193.07795123 175.71954449 189.46966549 175.68029695 185.86108398 175.65356445 C182.37900415 175.62756759 178.89736161 175.58719205 175.41555214 175.53681374 C173.43974801 175.51199236 171.4637748 175.50209061 169.48783875 175.49235535 C168.28682022 175.47256119 167.0858017 175.45276703 165.84838867 175.43237305 C164.78915695 175.42126999 163.72992523 175.41016693 162.63859558 175.39872742 C160 175 160 175 158.15937805 173.59407043 C156.71306646 171.60548479 156.59724563 170.44238488 156.625 168 C156.61726563 167.319375 156.60953125 166.63875 156.6015625 165.9375 C157.1379454 163.32920666 157.862571 162.59457805 160 161 C162.90193176 160.62145996 162.90193176 160.62145996 166.48754883 160.61523438 C167.14159195 160.6098616 167.79563507 160.60448883 168.46949768 160.59895325 C169.88867553 160.58917606 171.30791316 160.58623095 172.72712135 160.58930969 C174.97662954 160.59378903 177.22535145 160.57978393 179.47477722 160.56091309 C184.25400523 160.52411714 189.03315121 160.51042662 193.8125 160.5 C199.34157635 160.48790866 204.87027056 160.46626551 210.39917564 160.41999817 C212.60943637 160.40646488 214.81920959 160.4105928 217.02949524 160.41540527 C218.39442556 160.40605888 219.75935058 160.39588861 221.12426758 160.38476562 C222.9027282 160.38168396 222.9027282 160.38168396 224.71711731 160.37854004 C228.41010405 159.95271205 230.83598676 158.92399644 234 157 C235.42041821 154.15916359 235.31452272 152.14522722 235 149 C232.76793569 146.15219381 231.45007001 145.15002334 228 144 C225.45788831 143.90286915 222.94333854 143.86245058 220.40115643 143.86857224 C219.61608708 143.8665196 218.83101774 143.86446697 218.02215841 143.86235213 C215.36954905 143.8566602 212.71699125 143.85814208 210.06437683 143.85955811 C208.15215584 143.85697573 206.23993539 143.85396293 204.32771569 143.8505547 C199.05574448 143.84246653 193.78378687 143.84069412 188.51181018 143.83995724 C182.83275477 143.83810985 177.15370647 143.83056414 171.47465515 143.82382202 C159.04920733 143.81022557 146.62376273 143.80421202 134.19830871 143.79981136 C126.44438785 143.79705132 118.69046824 143.79281443 110.93654823 143.78830719 C89.48110474 143.77611313 68.02566289 143.76577848 46.57021618 143.7624321 C45.18248195 143.76221046 43.79474772 143.76198868 42.40701349 143.76176675 C41.01590358 143.76154611 39.62479367 143.76132562 38.23368376 143.7611053 C35.44281717 143.76066274 32.65195058 143.76021563 29.86108398 143.75976562 C29.16911019 143.75965623 28.47713639 143.75954684 27.76419369 143.75943414 C5.32132706 143.75580261 -17.1215073 143.7398791 -39.56436157 143.71657526 C-63.28497391 143.69198961 -87.00556239 143.67826659 -110.72618884 143.67706418 C-123.65961294 143.67614626 -136.59299476 143.67036441 -149.52640724 143.65224457 C-160.53772519 143.63687229 -171.54898782 143.63170612 -182.56031445 143.63998267 C-188.18123493 143.64389929 -193.80204387 143.64291034 -199.42295074 143.62892532 C-204.56553576 143.61624706 -209.70792474 143.61733022 -214.85050925 143.62951604 C-216.71390751 143.63148361 -218.57731937 143.62834607 -220.44069848 143.61967167 C-222.96858332 143.60864611 -225.49576815 143.61601954 -228.023633 143.6280632 C-229.11532799 143.61667041 -229.11532799 143.61667041 -230.22907743 143.60504746 C-234.86804231 143.65294208 -238.063703 144.54093772 -242 147 Z M-228 208 C-228.25313245 215.80717911 -228.25313245 215.80717911 -225 222 C-219.20311545 225.07580425 -212.66220373 224.33481251 -206.28051758 224.31567383 C-204.07257685 224.31251442 -201.86597846 224.33599663 -199.65820312 224.36132812 C-198.24218918 224.3636016 -196.82617166 224.36430439 -195.41015625 224.36328125 C-194.13277588 224.36626221 -192.85539551 224.36924316 -191.53930664 224.37231445 C-187.6938628 223.96779615 -185.27833882 223.0174158 -182 221 C-179.21939819 216.5763153 -180 213.63875369 -180 208 C-195.84 208 -211.68 208 -228 208 Z M-164 208 C-164.0825 210.31 -164.165 212.62 -164.25 215 C-164.73057034 223.31708262 -166.23761814 228.74423176 -172.5 234.375 C-174.87452539 236.30700021 -177.2557479 237.65838141 -180 239 C-180.00238835 239.72391088 -180.00477671 240.44782175 -180.00723743 241.19366932 C-180.06633171 258.79485071 -180.14184581 276.39588452 -180.23571491 293.99691486 C-180.28071161 302.50859147 -180.32011725 311.02022588 -180.34643555 319.53198242 C-180.36938435 326.94943044 -180.40274721 334.36674534 -180.44870156 341.78408784 C-180.47267608 345.71280701 -180.49137703 349.641394 -180.49761391 353.57018471 C-180.50364579 357.26630211 -180.5235761 360.9620811 -180.55427551 364.65807343 C-180.56729507 366.66490752 -180.56548063 368.67182056 -180.5632782 370.67869568 C-180.57581635 371.86921539 -180.58835449 373.05973511 -180.60127258 374.28633118 C-180.60588155 375.32334828 -180.61049051 376.36036539 -180.61523914 377.42880726 C-181 380 -181 380 -182.40382671 381.83220196 C-184.39370597 383.28804458 -185.55141011 383.40282489 -188 383.375 C-188.680625 383.38273438 -189.36125 383.39046875 -190.0625 383.3984375 C-192.64198346 382.86797921 -193.39978522 382.08581282 -195 380 C-195.38476086 377.44442463 -195.38476086 377.44442463 -195.39872742 374.32429504 C-195.41753464 372.5511367 -195.41753464 372.5511367 -195.4367218 370.74215698 C-195.43456917 368.79468063 -195.43456917 368.79468063 -195.43237305 366.80786133 C-195.44138826 365.42811706 -195.45171489 364.04838084 -195.46325684 362.6686554 C-195.49088155 358.92099765 -195.5001187 355.17349164 -195.50611091 351.42574525 C-195.51548042 347.50989893 -195.54168259 343.59416658 -195.56611633 339.6783905 C-195.60982433 332.26240941 -195.63834482 324.84645038 -195.66143972 317.43037957 C-195.6884684 308.98784175 -195.73238129 300.54541834 -195.77772844 292.10296214 C-195.87063628 274.73536482 -195.94168991 257.3677467 -196 240 C-201.28 240 -206.56 240 -212 240 C-212 303.36 -212 366.72 -212 432 C-206.72 432 -201.44 432 -196 432 C-195.96261719 430.01355469 -195.92523438 428.02710938 -195.88671875 425.98046875 C-195.83804184 424.05425387 -195.78926192 422.12804005 -195.73754883 420.2019043 C-195.68798681 418.2070937 -195.65348867 416.21192743 -195.61914062 414.21679688 C-195.58369141 412.96318359 -195.54824219 411.70957031 -195.51171875 410.41796875 C-195.48553467 409.26063232 -195.45935059 408.1032959 -195.43237305 406.91088867 C-195 404 -195 404 -193.58911133 402.1237793 C-191.60344068 400.71956329 -190.41743724 400.59752912 -188 400.625 C-187.319375 400.61726562 -186.63875 400.60953125 -185.9375 400.6015625 C-183.33059278 401.13766036 -182.58676027 401.85934956 -181 404 C-180.71044922 406.9074707 -180.71044922 406.9074707 -180.8046875 410.42578125 C-180.80984375 411.69744141 -180.815 412.96910156 -180.8203125 414.27929688 C-180.84090291 416.29495138 -180.87482924 418.30733272 -180.94140625 420.32202148 C-181.45584755 428.32738307 -181.45584755 428.32738307 -178.04394531 435.12573242 C-175.69132918 436.72135398 -175.69132918 436.72135398 -173.23095703 437.84375 C-168.81483836 440.13251538 -166.54275913 444.3717226 -165 449 C-164.77268477 451.56782022 -164.58417733 454.11557464 -164.4375 456.6875 C-164.293125 459.100625 -164.14875 461.51375 -164 464 C-158.72 464 -153.44 464 -148 464 C-147.9175 461.69 -147.835 459.38 -147.75 457 C-147.26942966 448.68291738 -145.76238186 443.25576824 -139.5 437.625 C-137.12547461 435.69299979 -134.7442521 434.34161859 -132 433 C-131.7898155 407.80935491 -131.6310785 382.6188411 -131.53369045 357.42749596 C-131.48727063 345.73082555 -131.42397815 334.03469976 -131.32104492 322.33837891 C-131.23137712 312.14455704 -131.17328495 301.95112954 -131.15320355 291.75692427 C-131.14146346 286.35824941 -131.11385038 280.9607028 -131.04842949 275.56238937 C-130.98735225 270.481348 -130.96849252 265.40189972 -130.98203087 260.32052612 C-130.9795542 258.45561693 -130.96164069 256.59065466 -130.92715073 254.72606277 C-130.34571468 245.0932955 -130.34571468 245.0932955 -133.96684456 236.6617012 C-136.30052825 235.02804908 -136.30052825 235.02804908 -138.77420139 234.02257729 C-142.51611308 232.30346672 -143.91027456 229.46110776 -146 226 C-147.1874822 222.43755339 -147.35067208 219.02681357 -147.5625 215.3125 C-147.7790625 211.6928125 -147.7790625 211.6928125 -148 208 C-153.28 208 -158.56 208 -164 208 Z M-132 208 C-132.25313245 215.80717911 -132.25313245 215.80717911 -129 222 C-123.20311545 225.07580425 -116.66220373 224.33481251 -110.28051758 224.31567383 C-108.07257685 224.31251442 -105.86597846 224.33599663 -103.65820312 224.36132812 C-102.24218918 224.3636016 -100.82617166 224.36430439 -99.41015625 224.36328125 C-98.13277588 224.36626221 -96.85539551 224.36924316 -95.53930664 224.37231445 C-91.6938628 223.96779615 -89.27833882 223.0174158 -86 221 C-83.21939819 216.5763153 -84 213.63875369 -84 208 C-99.84 208 -115.68 208 -132 208 Z M-68 208 C-68.33 212.95 -68.66 217.9 -69 223 C-71.80206164 230.86732692 -76.55624397 235.36087315 -84 239 C-84.2101845 264.19064509 -84.3689215 289.3811589 -84.46630955 314.57250404 C-84.51272937 326.26917445 -84.57602185 337.96530024 -84.67895508 349.66162109 C-84.76862288 359.85544296 -84.82671505 370.04887046 -84.84679645 380.24307573 C-84.85853654 385.64175059 -84.88614962 391.0392972 -84.95157051 396.43761063 C-85.01264775 401.518652 -85.03150748 406.59810028 -85.01796913 411.67947388 C-85.0204458 413.54438307 -85.03835931 415.40934534 -85.07284927 417.27393723 C-85.65428532 426.9067045 -85.65428532 426.9067045 -82.03315544 435.3382988 C-79.69947175 436.97195092 -79.69947175 436.97195092 -77.22579861 437.97742271 C-73.48388692 439.69653328 -72.08972544 442.53889224 -70 446 C-68.81304447 449.56086658 -68.64904582 452.97331024 -68.4375 456.6875 C-68.39431641 457.38939453 -68.35113281 458.09128906 -68.30664062 458.81445312 C-68.2008264 460.54275206 -68.09993419 462.2713511 -68 464 C-65.36 464 -62.72 464 -60 464 C-59.81316838 443.09473623 -59.6720695 422.18960999 -59.58550262 401.28368092 C-59.54424065 391.57677628 -59.48798121 381.87039018 -59.39648438 372.16381836 C-59.31677893 363.70412485 -59.26514211 355.24480681 -59.24729204 346.78474826 C-59.23685639 342.30442401 -59.21231257 337.82517397 -59.15415955 333.34519386 C-59.09986685 329.12845273 -59.08310443 324.91322826 -59.09513855 320.69617081 C-59.0929371 319.14851958 -59.07701413 317.60081781 -59.0463562 316.0534687 C-58.54400662 307.99987164 -58.54400662 307.99987164 -61.74098206 301.05258751 C-63.81591184 299.68687282 -63.81591184 299.68687282 -66.0011673 298.84717846 C-69.99826088 297.1530639 -72.23556522 293.55847795 -74.109375 289.73828125 C-76.22463666 283.2347794 -76.27567406 274.79757934 -73.4375 268.5 C-70.08108508 262.95358386 -65.18161267 258.91370116 -59 257 C-55.48821965 256.69331405 -51.98510505 256.70627283 -48.46166992 256.70947266 C-47.40089737 256.70275543 -46.34012482 256.69603821 -45.24720764 256.68911743 C-41.74158031 256.67012481 -38.23614433 256.6662125 -34.73046875 256.6640625 C-32.29055198 256.65763523 -29.85063598 256.65090692 -27.41072083 256.64389038 C-22.29552423 256.63191428 -17.18039518 256.62820989 -12.06518555 256.62939453 C-5.51816043 256.62959768 1.02843043 256.60230045 7.57535267 256.56785011 C12.61547323 256.54558642 17.65548922 256.54155685 22.69565392 256.54261398 C25.10892927 256.54025705 27.52220747 256.53142837 29.93543434 256.51594925 C33.31509213 256.4963019 36.69381268 256.50212336 40.07348633 256.51416016 C41.06545013 256.50292114 42.05741394 256.49168213 43.07943726 256.48010254 C50.20541292 256.54442818 55.56721499 258.03773185 61.0234375 262.74609375 C61.46945312 263.30425781 61.91546875 263.86242187 62.375 264.4375 C63.06722656 265.27087891 63.06722656 265.27087891 63.7734375 266.12109375 C68.00446106 272.60237506 67.67032648 279.50761669 67 287 C65.34661479 293.28682402 61.25881766 297.37879661 56 301 C54.02 301.99 54.02 301.99 52 303 C52 356.13 52 409.26 52 464 C54.64 464 57.28 464 60 464 C60.02578125 463.01 60.0515625 462.02 60.078125 461 C60.66349172 445.48778182 60.66349172 445.48778182 66.6796875 439.26171875 C69.61627757 436.62130837 72.45593579 434.73263325 76 433 C76.2101845 407.80935491 76.3689215 382.6188411 76.46630955 357.42749596 C76.51272937 345.73082555 76.57602185 334.03469976 76.67895508 322.33837891 C76.76862288 312.14455704 76.82671505 301.95112954 76.84679645 291.75692427 C76.85853654 286.35824941 76.88614962 280.9607028 76.95157051 275.56238937 C77.01264775 270.481348 77.03150748 265.40189972 77.01796913 260.32052612 C77.0204458 258.45561693 77.03835931 256.59065466 77.07284927 254.72606277 C77.65428532 245.0932955 77.65428532 245.0932955 74.03315544 236.6617012 C71.69947175 235.02804908 71.69947175 235.02804908 69.22579861 234.02257729 C65.48388692 232.30346672 64.08972544 229.46110776 62 226 C60.09095719 220.27287157 60.40157017 214.02355259 60 208 C17.76 208 -24.48 208 -68 208 Z M76 208 C75.74686755 215.80717911 75.74686755 215.80717911 79 222 C84.79688455 225.07580425 91.33779627 224.33481251 97.71948242 224.31567383 C99.92742315 224.31251442 102.13402154 224.33599663 104.34179688 224.36132812 C105.75781082 224.3636016 107.17382834 224.36430439 108.58984375 224.36328125 C109.86722412 224.36626221 111.14460449 224.36924316 112.46069336 224.37231445 C116.3061372 223.96779615 118.72166118 223.0174158 122 221 C124.78060181 216.5763153 124 213.63875369 124 208 C108.16 208 92.32 208 76 208 Z M140 208 C139.9175 210.31 139.835 212.62 139.75 215 C139.26942966 223.31708262 137.76238186 228.74423176 131.5 234.375 C129.12547461 236.30700021 126.7442521 237.65838141 124 239 C123.7898155 264.19064509 123.6310785 289.3811589 123.53369045 314.57250404 C123.48727063 326.26917445 123.42397815 337.96530024 123.32104492 349.66162109 C123.23137712 359.85544296 123.17328495 370.04887046 123.15320355 380.24307573 C123.14146346 385.64175059 123.11385038 391.0392972 123.04842949 396.43761063 C122.98735225 401.518652 122.96849252 406.59810028 122.98203087 411.67947388 C122.9795542 413.54438307 122.96164069 415.40934534 122.92715073 417.27393723 C122.34571468 426.9067045 122.34571468 426.9067045 125.96684456 435.3382988 C128.30052825 436.97195092 128.30052825 436.97195092 130.77420139 437.97742271 C134.51611308 439.69653328 135.91027456 442.53889224 138 446 C139.1874822 449.56244661 139.35067208 452.97318643 139.5625 456.6875 C139.7790625 460.3071875 139.7790625 460.3071875 140 464 C145.28 464 150.56 464 156 464 C156.0825 461.69 156.165 459.38 156.25 457 C156.73057034 448.68291738 158.23761814 443.25576824 164.5 437.625 C166.87452539 435.69299979 169.2557479 434.34161859 172 433 C172.00238835 432.27608912 172.00477671 431.55217825 172.00723743 430.80633068 C172.06633171 413.20514929 172.14184581 395.60411548 172.23571491 378.00308514 C172.28071161 369.49140853 172.32011725 360.97977412 172.34643555 352.46801758 C172.36938435 345.05056956 172.40274721 337.63325466 172.44870156 330.21591216 C172.47267608 326.28719299 172.49137703 322.358606 172.49761391 318.42981529 C172.50364579 314.73369789 172.5235761 311.0379189 172.55427551 307.34192657 C172.56729507 305.33509248 172.56548063 303.32817944 172.5632782 301.32130432 C172.57581635 300.13078461 172.58835449 298.94026489 172.60127258 297.71366882 C172.60818603 296.15814316 172.60818603 296.15814316 172.61523914 294.57119274 C173 292 173 292 174.40382671 290.16779804 C176.39370597 288.71195542 177.55141011 288.59717511 180 288.625 C181.0209375 288.61339844 181.0209375 288.61339844 182.0625 288.6015625 C184.64198346 289.13202079 185.39978522 289.91418718 187 292 C187.38476086 294.55557537 187.38476086 294.55557537 187.39872742 297.67570496 C187.41126556 298.85781052 187.42380371 300.03991608 187.4367218 301.25784302 C187.43528671 302.55616058 187.43385162 303.85447815 187.43237305 305.19213867 C187.44138826 306.57188294 187.45171489 307.95161916 187.46325684 309.3313446 C187.49088155 313.07900235 187.5001187 316.82650836 187.50611091 320.57425475 C187.51548042 324.49010107 187.54168259 328.40583342 187.56611633 332.3216095 C187.60982433 339.73759059 187.63834482 347.15354962 187.66143972 354.56962043 C187.6884684 363.01215825 187.73238129 371.45458166 187.77772844 379.89703786 C187.87063628 397.26463518 187.94168991 414.6322533 188 432 C193.28 432 198.56 432 204 432 C204 368.64 204 305.28 204 240 C198.72 240 193.44 240 188 240 C187.96261719 241.98644531 187.92523438 243.97289062 187.88671875 246.01953125 C187.83804184 247.94574613 187.78926192 249.87195995 187.73754883 251.7980957 C187.68798681 253.7929063 187.65348867 255.78807257 187.61914062 257.78320312 C187.58369141 259.03681641 187.54824219 260.29042969 187.51171875 261.58203125 C187.48553467 262.73936768 187.45935059 263.8967041 187.43237305 265.08911133 C187 268 187 268 185.58911133 269.8762207 C183.60344068 271.28043671 182.41743724 271.40247088 180 271.375 C178.9790625 271.38660156 178.9790625 271.38660156 177.9375 271.3984375 C175.33059278 270.86233964 174.58676027 270.14065044 173 268 C172.71044922 265.0925293 172.71044922 265.0925293 172.8046875 261.57421875 C172.80984375 260.30255859 172.815 259.03089844 172.8203125 257.72070312 C172.84090291 255.70504862 172.87482924 253.69266728 172.94140625 251.67797852 C173.45584755 243.67261693 173.45584755 243.67261693 170.04394531 236.87426758 C167.69132918 235.27864602 167.69132918 235.27864602 165.23095703 234.15625 C160.81483836 231.86748462 158.54275913 227.6282774 157 223 C156.77268477 220.43217978 156.58417733 217.88442536 156.4375 215.3125 C156.293125 212.899375 156.14875 210.48625 156 208 C150.72 208 145.44 208 140 208 Z M172 208 C171.74686755 215.80717911 171.74686755 215.80717911 175 222 C180.79688455 225.07580425 187.33779627 224.33481251 193.71948242 224.31567383 C195.92742315 224.31251442 198.13402154 224.33599663 200.34179688 224.36132812 C201.75781082 224.3636016 203.17382834 224.36430439 204.58984375 224.36328125 C205.86722412 224.36626221 207.14460449 224.36924316 208.46069336 224.37231445 C212.3061372 223.96779615 214.72166118 223.0174158 218 221 C220.78060181 216.5763153 220 213.63875369 220 208 C204.16 208 188.32 208 172 208 Z M-116 240 C-116 303.36 -116 366.72 -116 432 C-110.72 432 -105.44 432 -100 432 C-100 368.64 -100 305.28 -100 240 C-105.28 240 -110.56 240 -116 240 Z M92 240 C92 303.36 92 366.72 92 432 C97.28 432 102.56 432 108 432 C108 368.64 108 305.28 108 240 C102.72 240 97.44 240 92 240 Z M-58 275 C-59.42041821 277.84083641 -59.31452272 279.85477278 -59 283 C-56.76793569 285.84780619 -55.45007001 286.84997666 -52 288 C-50.31337603 288.10057747 -48.62317067 288.14562877 -46.93359375 288.15771484 C-45.3868396 288.17310806 -45.3868396 288.17310806 -43.80883789 288.18881226 C-42.14002563 288.19976425 -42.14002563 288.19976425 -40.4375 288.2109375 C-38.09113873 288.23899542 -35.74478465 288.2676598 -33.3984375 288.296875 C-29.69173299 288.33822469 -25.98516425 288.37510511 -22.27832031 288.40136719 C-18.70609732 288.42888232 -15.13448847 288.47474287 -11.5625 288.5234375 C-10.4499585 288.52669037 -9.33741699 288.52994324 -8.19116211 288.53329468 C-7.15999268 288.54986115 -6.12882324 288.56642761 -5.06640625 288.58349609 C-4.15834229 288.59158295 -3.25027832 288.5996698 -2.31469727 288.60800171 C0.43989147 289.07449644 1.33213967 289.79819015 3 292 C3.3984375 293.9375 3.3984375 293.9375 3.375 296 C3.38660156 297.0209375 3.38660156 297.0209375 3.3984375 298.0625 C3 300 3 300 0 303 C-14.52 303.33 -29.04 303.66 -44 304 C-44 356.8 -44 409.6 -44 464 C-17.6 464 8.8 464 36 464 C36 411.2 36 358.4 36 304 C32.04 303.67 28.08 303.34 24 303 C21 300 21 300 20.6015625 298.0625 C20.60929687 297.381875 20.61703125 296.70125 20.625 296 C20.61339844 294.9790625 20.61339844 294.9790625 20.6015625 293.9375 C21.12404715 291.39679033 21.98736302 290.61167868 24 289 C26.08129883 288.61523438 26.08129883 288.61523438 28.45703125 288.59375 C29.75543945 288.56087891 29.75543945 288.56087891 31.08007812 288.52734375 C31.98177734 288.51832031 32.88347656 288.50929688 33.8125 288.5 C42.31488099 288.4522654 42.31488099 288.4522654 50 285 C51.42041821 282.15916359 51.31452272 280.14522722 51 277 C48.76793569 274.15219381 47.45007001 273.15002334 44 272 C40.97329877 271.89279086 37.96928923 271.8427237 34.94213867 271.83886719 C33.55142403 271.83141983 33.55142403 271.83141983 32.13261414 271.82382202 C29.06105816 271.8092001 25.98955383 271.80239823 22.91796875 271.796875 C20.78428648 271.79112344 18.65060423 271.78536571 16.516922 271.77960205 C12.04049437 271.76909189 7.56408471 271.76324936 3.08764648 271.75976562 C-2.64571007 271.75428178 -8.37882904 271.73025603 -14.11211109 271.70179367 C-18.52077424 271.68316108 -22.92938025 271.67796135 -27.33807945 271.67642975 C-29.45156846 271.67340396 -31.56505648 271.66537792 -33.67850685 271.65224457 C-36.63717293 271.63517182 -39.5952596 271.63706748 -42.55395508 271.64355469 C-43.42534119 271.6343399 -44.29672729 271.62512512 -45.19451904 271.6156311 C-50.1971732 271.64995602 -53.67492411 272.19597396 -58 275 Z M-226 451 C-228.78060181 455.4236847 -228 458.36124631 -228 464 C-212.16 464 -196.32 464 -180 464 C-179.74686755 456.19282089 -179.74686755 456.19282089 -183 450 C-188.79688455 446.92419575 -195.33779627 447.66518749 -201.71948242 447.68432617 C-203.92742315 447.68748558 -206.13402154 447.66400337 -208.34179688 447.63867188 C-209.75781082 447.6363984 -211.17382834 447.63569561 -212.58984375 447.63671875 C-213.86722412 447.63373779 -215.14460449 447.63075684 -216.46069336 447.62768555 C-220.3061372 448.03220385 -222.72166118 448.9825842 -226 451 Z M-130 451 C-132.78060181 455.4236847 -132 458.36124631 -132 464 C-116.16 464 -100.32 464 -84 464 C-83.74686755 456.19282089 -83.74686755 456.19282089 -87 450 C-92.79688455 446.92419575 -99.33779627 447.66518749 -105.71948242 447.68432617 C-107.92742315 447.68748558 -110.13402154 447.66400337 -112.34179688 447.63867188 C-113.75781082 447.6363984 -115.17382834 447.63569561 -116.58984375 447.63671875 C-117.86722412 447.63373779 -119.14460449 447.63075684 -120.46069336 447.62768555 C-124.3061372 448.03220385 -126.72166118 448.9825842 -130 451 Z M78 451 C75.21939819 455.4236847 76 458.36124631 76 464 C91.84 464 107.68 464 124 464 C124.25313245 456.19282089 124.25313245 456.19282089 121 450 C115.20311545 446.92419575 108.66220373 447.66518749 102.28051758 447.68432617 C100.07257685 447.68748558 97.86597846 447.66400337 95.65820312 447.63867188 C94.24218918 447.6363984 92.82617166 447.63569561 91.41015625 447.63671875 C90.13277588 447.63373779 88.85539551 447.63075684 87.53930664 447.62768555 C83.6938628 448.03220385 81.27833882 448.9825842 78 451 Z M174 451 C171.21939819 455.4236847 172 458.36124631 172 464 C187.84 464 203.68 464 220 464 C220.25313245 456.19282089 220.25313245 456.19282089 217 450 C211.20311545 446.92419575 204.66220373 447.66518749 198.28051758 447.68432617 C196.07257685 447.68748558 193.86597846 447.66400337 191.65820312 447.63867188 C190.24218918 447.6363984 188.82617166 447.63569561 187.41015625 447.63671875 C186.13277588 447.63373779 184.85539551 447.63075684 183.53930664 447.62768555 C179.6938628 448.03220385 177.27833882 448.9825842 174 451 Z M-242 483 C-244.78060181 487.4236847 -244 490.36124631 -244 496 C-85.6 496 72.8 496 236 496 C236.25313245 488.19282089 236.25313245 488.19282089 233 482 C228.82718805 479.74323672 224.78702884 479.71761141 220.15506077 479.74552441 C219.36768374 479.74231793 218.5803067 479.73911145 217.76906976 479.73580781 C215.12059554 479.72748123 212.47234588 479.73344137 209.8238678 479.73930359 C207.90991979 479.73628412 205.99597299 479.73239567 204.08202833 479.72771102 C198.81455782 479.71739595 193.5471551 479.71962175 188.27967894 479.72389162 C182.60201821 479.72635247 176.92437407 479.71735268 171.24671936 479.70985413 C160.12071035 479.69708744 148.99472545 479.69531587 137.86871035 479.69765439 C128.82806874 479.69943544 119.78743447 479.6976925 110.74679375 479.69342995 C109.46143592 479.69283476 108.17607809 479.69223957 106.85177002 479.69162634 C104.24080408 479.69041463 101.62983814 479.68920049 99.01887219 479.68798397 C81.48123152 479.68019368 63.94359532 479.6762798 46.40595341 479.68030071 C45.71998764 479.68045709 45.03402187 479.68061346 44.32726926 479.68077458 C40.85043229 479.68158038 37.37359534 479.68242615 33.89675839 479.68328788 C32.8609707 479.68354451 32.8609707 479.68354451 31.80425802 479.68380633 C30.40784843 479.68415298 29.01143884 479.68450151 27.61502925 479.68485192 C5.88339213 479.69020998 -15.84820443 479.68227683 -37.57983398 479.66381836 C-61.98907279 479.64310991 -86.39828035 479.63240449 -110.80752951 479.63639385 C-123.73421346 479.63830897 -136.66086044 479.63578807 -149.58753777 479.62167931 C-160.59149177 479.60979091 -171.59538606 479.60833202 -182.59934085 479.62046947 C-188.21622182 479.62637593 -193.83299343 479.62740894 -199.44986725 479.61546707 C-204.58867648 479.60466833 -209.72728424 479.60763961 -214.86608381 479.62172876 C-216.72807443 479.62439232 -218.59008055 479.62195753 -220.45205604 479.61399289 C-222.97802248 479.60393546 -225.50328197 479.61226692 -228.02921963 479.62526989 C-228.75644459 479.61796054 -229.48366956 479.6106512 -230.23293164 479.60312036 C-234.87395826 479.65282821 -238.06104453 480.54432394 -242 483 Z " fill="#FCCF67" transform="translate(260,0)"/>
<path d="M0 0 C1.49458466 0.76537726 2.98019917 1.54845158 4.45776367 2.34619141 C5.26702805 2.76639557 6.07629242 3.18659973 6.91007996 3.61953735 C9.49022388 4.96381246 12.05786792 6.33019481 14.62573242 7.69775391 C16.30659316 8.57815073 17.98822909 9.4570692 19.6706543 10.33447266 C23.88348473 12.536294 28.08611551 14.75681246 32.28570557 16.98376465 C36.47157163 19.20128004 40.66398688 21.40633274 44.85620117 23.61181641 C45.64924149 24.02926117 46.4422818 24.44670593 47.25935364 24.87680054 C53.26986721 28.03979492 59.28871268 31.18651768 65.31323242 34.32275391 C67.25472608 35.3356072 69.19613087 36.34863087 71.13745117 37.36181641 C73.93173333 38.82007497 76.72638552 40.27758538 79.52270508 41.73193359 C105.19527036 55.08682977 105.19527036 55.08682977 106.81323242 58.32275391 C107.3819528 65.37488661 107.3819528 65.37488661 105.31323242 68.82275391 C101.84159231 70.90573797 98.72314034 70.8475601 94.81323242 70.32275391 C91.76317028 69.28079974 89.00072761 67.82833275 86.16870117 66.29931641 C85.3594368 65.87911224 84.55017242 65.45890808 83.71638489 65.02597046 C81.13624097 63.68169536 78.56859692 62.315313 76.00073242 60.94775391 C74.31987168 60.06735709 72.63823575 59.18843861 70.95581055 58.31103516 C66.74298012 56.10921381 62.54034934 53.88869536 58.34075928 51.66174316 C54.15489321 49.44422778 49.96247797 47.23917508 45.77026367 45.03369141 C44.97722336 44.61624664 44.18418304 44.19880188 43.36711121 43.76870728 C36.40084863 40.10275609 29.42237106 36.46056705 22.43896484 32.82739258 C17.70551905 30.36214672 12.97946518 27.88482923 8.27026367 25.37353516 C7.40143555 24.91140625 6.53260742 24.44927734 5.63745117 23.97314453 C4.00657247 23.10444164 2.3775488 22.23224381 0.75073242 21.35595703 C0.02499023 20.96988281 -0.70075195 20.58380859 -1.44848633 20.18603516 C-2.077146 19.84870361 -2.70580566 19.51137207 -3.35351562 19.16381836 C-7.15320662 17.41842243 -7.15320662 17.41842243 -11.17529297 17.96850586 C-11.87130615 18.32904053 -12.56731934 18.6895752 -13.28442383 19.06103516 C-14.0756665 19.46370605 -14.86690918 19.86637695 -15.68212891 20.28125 C-16.52928467 20.72807129 -17.37644043 21.17489258 -18.24926758 21.63525391 C-19.13831787 22.0923877 -20.02736816 22.54952148 -20.94335938 23.02050781 C-23.69812138 24.44164421 -26.44328073 25.87998973 -29.18676758 27.32275391 C-30.76483833 28.14707652 -32.34296067 28.97130037 -33.92114258 29.79541016 C-37.02048262 31.41890545 -40.11474639 33.05166929 -43.20629883 34.68994141 C-48.68681278 37.59249025 -54.18645022 40.4579578 -59.68676758 43.32275391 C-65.96150762 46.59289379 -72.23424909 49.86654531 -78.49414062 53.16503906 C-80.02836002 53.97279515 -81.56366626 54.77849058 -83.10009766 55.58203125 C-87.34435694 57.80523613 -91.55892224 60.07282386 -95.75317383 62.38916016 C-96.69016113 62.89890381 -97.62714844 63.40864746 -98.5925293 63.93383789 C-100.39713156 64.91596345 -102.19486193 65.91086389 -103.98413086 66.9206543 C-109.36959803 69.82834294 -113.05541844 71.01227718 -119.18676758 70.32275391 C-121.68676758 68.82275391 -121.68676758 68.82275391 -123.18676758 66.32275391 C-123.73362977 63.54287112 -123.91668227 61.07066804 -123.18676758 58.32275391 C-120.33478407 55.04713469 -117.41221807 53.17677757 -113.55786133 51.22119141 C-112.45023438 50.65384277 -111.34260742 50.08649414 -110.20141602 49.50195312 C-109.00905793 48.90050436 -107.81667455 48.29910575 -106.62426758 47.69775391 C-105.39368472 47.0698713 -104.16354497 46.44111953 -102.93383789 45.81152344 C-100.48093574 44.55606293 -98.02653978 43.30360376 -95.57104492 42.05322266 C-91.17335949 39.80457207 -86.80182836 37.50892113 -82.43676758 35.19775391 C-75.53104081 31.55162624 -68.61205901 27.93157992 -61.68676758 24.32275391 C-55.37863484 21.03482796 -49.07210604 17.74408538 -42.77783203 14.4296875 C-41.23056449 13.61547204 -39.68224068 12.80326034 -38.1328125 11.99316406 C-34.08156469 9.8707328 -30.06080581 7.70547731 -26.06567383 5.47900391 C-25.21779297 5.01381348 -24.36991211 4.54862305 -23.49633789 4.06933594 C-21.8826229 3.18296022 -20.27588029 2.28371587 -18.67797852 1.36914062 C-17.94482422 0.96969238 -17.21166992 0.57024414 -16.45629883 0.15869141 C-15.82312744 -0.19660645 -15.18995605 -0.5519043 -14.53759766 -0.91796875 C-9.32043779 -2.6030209 -4.8983588 -2.23955207 0 0 Z " fill="#FCD068" transform="translate(264.186767578125,41.67724609375)"/>
</svg>
