<?xml version="1.0" encoding="UTF-8"?>
<svg version="1.1" xmlns="http://www.w3.org/2000/svg" width="160" height="160">
<path d="M0 0 C2.84391341 2.0617772 4.74119697 3.68433988 5.43859863 7.22967529 C5.579011 10.01620325 5.56169904 12.76163573 5.48828125 15.55078125 C5.48120651 16.56472458 5.47413177 17.57866791 5.46684265 18.62333679 C5.43891012 21.8538163 5.37617162 25.08254661 5.3125 28.3125 C5.28741575 30.5058343 5.26460281 32.69919584 5.24414062 34.89257812 C5.18908675 40.26239014 5.10281998 45.63089876 5 51 C10.28 51 15.56 51 21 51 C20.98428955 49.72882324 20.9685791 48.45764648 20.95239258 47.14794922 C20.8979675 42.41803356 20.86360408 37.68814544 20.83520508 32.95800781 C20.82014712 30.91336406 20.79969643 28.86875245 20.77368164 26.82421875 C20.73716689 23.88012748 20.72024349 20.93646443 20.70703125 17.9921875 C20.68380547 16.6277803 20.68380547 16.6277803 20.66011047 15.23580933 C20.65875082 10.07280233 21.05825408 6.44150211 24 2 C27.41234859 -0.40415469 29.38189691 -1 33.5625 -1 C37.65945182 0.19184053 39.33730767 1.71079183 42 5 C42.92687325 7.78061975 43.12193396 9.42051859 43.11352539 12.2878418 C43.11341209 13.57884041 43.11341209 13.57884041 43.11329651 14.8959198 C43.10813522 15.82100845 43.10297394 16.74609711 43.09765625 17.69921875 C43.0962413 18.64940384 43.09482635 19.59958893 43.09336853 20.5785675 C43.08776875 23.61491029 43.07521632 26.65117948 43.0625 29.6875 C43.05748497 31.74544164 43.05292207 33.80338444 43.04882812 35.86132812 C43.0377994 40.90758046 43.02053493 45.95377775 43 51 C48.28 51 53.56 51 59 51 C58.97381592 49.63270752 58.94763184 48.26541504 58.9206543 46.85668945 C58.83007714 41.77840573 58.77272271 36.70019325 58.7253418 31.62133789 C58.70021491 29.4242756 58.66610754 27.22729676 58.62280273 25.03051758 C58.56207238 21.87039595 58.53377167 18.71138043 58.51171875 15.55078125 C58.48591232 14.57039383 58.4601059 13.59000641 58.43351746 12.57991028 C58.43158012 7.85743501 58.43569668 5.72924999 61.40380859 1.89355469 C64.96835874 -0.70628083 67.62080501 -1.44563237 72 -1 C76.08785847 1.04392923 78.31852104 2.77460278 80 7 C80.24050903 9.15142822 80.24050903 9.15142822 80.22705078 11.49316406 C80.22689972 12.37377502 80.22674866 13.25438599 80.22659302 14.16168213 C80.21627045 15.10348328 80.20594788 16.04528442 80.1953125 17.015625 C80.1924826 17.98659119 80.18965271 18.95755737 80.18673706 19.95794678 C80.17555292 23.05542385 80.15045142 26.1526105 80.125 29.25 C80.11496792 31.35155832 80.10584247 33.45312118 80.09765625 35.5546875 C80.07561934 40.70323669 80.04110145 45.85156913 80 51 C85.28 51 90.56 51 96 51 C95.97381592 49.6682373 95.94763184 48.33647461 95.9206543 46.96435547 C95.8299739 42.01091391 95.77268535 37.05754534 95.7253418 32.10351562 C95.70023837 29.96178844 95.66614832 27.82014659 95.62280273 25.67871094 C95.5619685 22.5954887 95.53374819 19.51340157 95.51171875 16.4296875 C95.48591232 15.47633514 95.4601059 14.52298279 95.43351746 13.54074097 C95.43164031 9.06486915 95.52520861 5.97321126 98.40161133 2.4050293 C101.53254522 -0.49291581 102.98553542 -0.95627588 107.07421875 -1.171875 C110.93036383 -0.82771601 113.1286565 1.01469025 115.61543274 3.82672119 C117.21574646 6.33864531 117.36542935 7.63571693 117.34057617 10.58496094 C117.34034958 11.48559265 117.34012299 12.38622437 117.33988953 13.31414795 C117.32440567 14.27782288 117.30892181 15.2414978 117.29296875 16.234375 C117.28872391 17.22753723 117.28447906 18.22069946 117.28010559 19.24395752 C117.26332634 22.41291528 117.225675 25.58123478 117.1875 28.75 C117.17245221 30.89973039 117.15876397 33.04947076 117.14648438 35.19921875 C117.11342536 40.46636323 117.06323334 45.73313601 117 51 C118.09570312 50.96261719 119.19140625 50.92523438 120.3203125 50.88671875 C124.67724895 51.02084949 126.00943025 51.92147232 129 55 C130.20643566 58.61930698 130.32268559 61.19231005 130 65 C126.92307692 70.53846154 126.92307692 70.53846154 124 72 C122.06029619 72.10448883 120.11697464 72.14390616 118.17448425 72.15390015 C116.93366592 72.16250061 115.6928476 72.17110107 114.41442871 72.17996216 C113.0317387 72.18439751 111.64904824 72.18869586 110.26635742 72.19287109 C108.81606346 72.20077119 107.36577148 72.20904008 105.91548157 72.21765137 C101.14549642 72.24388115 96.37550245 72.25917944 91.60546875 72.2734375 C89.96431281 72.27879669 88.32315693 72.2841742 86.68200111 72.28956985 C79.85613739 72.31119953 73.03027604 72.32993692 66.20438671 72.34119225 C56.41711119 72.35743603 46.63023239 72.39062286 36.84310645 72.44759309 C29.96406392 72.48627251 23.0851276 72.50582252 16.20597917 72.51111281 C12.09597802 72.51476892 7.98639991 72.52681703 3.87651634 72.55921555 C0.00960333 72.58926165 -3.85662993 72.59562086 -7.72363472 72.58383179 C-9.14222496 72.58361076 -10.56084641 72.59194019 -11.97932816 72.60948563 C-24.04414469 72.75058438 -24.04414469 72.75058438 -27.33183289 69.59243774 C-29.84722729 65.68335494 -30 63.66288361 -30 59 C-28.45123978 55.33188369 -26.53784843 52.86719778 -23 51 C-20.66715138 50.95244193 -18.33276409 50.94846219 -16 51 C-16.01110306 50.44956024 -16.02220612 49.89912048 -16.03364563 49.33200073 C-16.14448999 43.58933787 -16.21977035 37.84698014 -16.2746582 32.10351562 C-16.29976163 29.96178844 -16.33385168 27.82014659 -16.37719727 25.67871094 C-16.4380315 22.5954887 -16.46625181 19.51340157 -16.48828125 16.4296875 C-16.51408768 15.47633514 -16.5398941 14.52298279 -16.56648254 13.54074097 C-16.5683433 9.1039483 -16.47660573 5.97193311 -13.65698242 2.41064453 C-9.52608331 -1.33726485 -5.23402982 -1.82136569 0 0 Z M-7 7 C-8.4612027 8.23233585 -8.4612027 8.23233585 -8.11352539 11.96899414 C-8.1133662 13.74105607 -8.10766785 15.5131226 -8.09765625 17.28515625 C-8.0962413 18.21597519 -8.09482635 19.14679413 -8.09336853 20.1058197 C-8.08775172 23.09141191 -8.0751964 26.07693029 -8.0625 29.0625 C-8.05748716 31.08137913 -8.05292388 33.10025943 -8.04882812 35.11914062 C-8.03777683 40.07945572 -8.02050095 45.03971532 -8 50 C-6.02 50 -4.04 50 -2 50 C-1.95065344 44.19760386 -1.91430598 38.39532919 -1.89013672 32.59277344 C-1.88006373 30.61781691 -1.86640479 28.64287534 -1.84912109 26.66796875 C-1.82492961 23.83329582 -1.81353009 20.99881962 -1.8046875 18.1640625 C-1.79436493 17.27756012 -1.78404236 16.39105774 -1.77340698 15.47769165 C-1.7730093 13.31714048 -1.87727466 11.15706282 -2 9 C-2.66 8.34 -3.32 7.68 -4 7 C-4.99 7 -5.98 7 -7 7 Z M31 7 C28.55570533 9.00042836 28.55570533 9.00042836 28.77294922 12.99072266 C28.77326663 14.71520169 28.78460876 16.43970033 28.8046875 18.1640625 C28.8075174 19.07127045 28.81034729 19.97847839 28.81326294 20.91317749 C28.82447847 23.81725123 28.84958537 26.72101912 28.875 29.625 C28.88502803 31.59114139 28.89415419 33.5572876 28.90234375 35.5234375 C28.92442228 40.34907659 28.95896135 45.1744864 29 50 C30.98 50 32.96 50 35 50 C35 36.47 35 22.94 35 9 C33.68 8.34 32.36 7.68 31 7 Z M68 7 C65.970332 10.044502 65.75143699 10.60276328 65.77294922 14.01245117 C65.77310028 14.81305466 65.77325134 15.61365814 65.77340698 16.43852234 C65.78372955 17.29798965 65.79405212 18.15745697 65.8046875 19.04296875 C65.8075174 19.9265657 65.81034729 20.81016266 65.81326294 21.72053528 C65.82445903 24.54299454 65.84956249 27.36513662 65.875 30.1875 C65.88503054 32.10090688 65.89415626 34.01431873 65.90234375 35.92773438 C65.92439649 40.61861182 65.95892238 45.30925213 66 50 C67.98 50 69.96 50 72 50 C72 36.14 72 22.28 72 8 C70.68 7.67 69.36 7.34 68 7 Z M105 7 C102.970332 10.044502 102.75143699 10.60276328 102.77294922 14.01245117 C102.77310028 14.81305466 102.77325134 15.61365814 102.77340698 16.43852234 C102.78372955 17.29798965 102.79405212 18.15745697 102.8046875 19.04296875 C102.8075174 19.9265657 102.81034729 20.81016266 102.81326294 21.72053528 C102.82445903 24.54299454 102.84956249 27.36513662 102.875 30.1875 C102.88503054 32.10090688 102.89415626 34.01431873 102.90234375 35.92773438 C102.92439649 40.61861182 102.95892238 45.30925213 103 50 C104.98 50 106.96 50 109 50 C109 36.14 109 22.28 109 8 C107.68 7.67 106.36 7.34 105 7 Z M-22 61 C-21.67 61.99 -21.34 62.98 -21 64 C-18.37457789 65.31271105 -16.43717802 65.12589711 -13.49597168 65.12698364 C-12.32654526 65.12980347 -11.15711884 65.13262329 -9.95225525 65.13552856 C-8.66283524 65.13350433 -7.37341522 65.1314801 -6.04492188 65.12939453 C-4.67843072 65.13074899 -3.31193993 65.13252918 -1.94544983 65.13470459 C1.7713987 65.13927357 5.48821956 65.13749155 9.20506859 65.1343255 C13.08922782 65.13179915 16.97338463 65.13414021 20.85754395 65.13571167 C27.38110786 65.13753256 33.90466046 65.13512917 40.42822266 65.13037109 C47.97744862 65.12492863 55.52664759 65.12669134 63.0758729 65.1321975 C69.54977859 65.13673092 76.02367614 65.13737805 82.49758291 65.13475883 C86.36753882 65.13319732 90.23748203 65.13299885 94.10743713 65.13629532 C97.74516124 65.13917735 101.38285043 65.1371922 105.02057076 65.13140106 C106.99779843 65.12944124 108.97502904 65.13242456 110.95225525 65.13552856 C112.70639488 65.13129883 112.70639488 65.13129883 114.49597168 65.12698364 C116.02686054 65.1264181 116.02686054 65.1264181 117.58867645 65.12584114 C120.01222347 65.1605513 120.01222347 65.1605513 122 64 C121.65555119 61.52733235 121.65555119 61.52733235 121 59 C118.38759801 57.693799 116.46732213 57.86816138 113.54066467 57.85955811 C112.38109756 57.85384796 111.22153046 57.84813782 110.02682495 57.84225464 C108.74832672 57.84113678 107.46982849 57.84001892 106.15258789 57.83886719 C104.79757044 57.8342398 103.44255429 57.82921525 102.08753967 57.82382202 C98.40162431 57.81068989 94.71572717 57.80425169 91.02979207 57.79981136 C88.72850692 57.79688245 86.42722677 57.79277803 84.12594414 57.78830719 C76.93008988 57.77463122 69.73424704 57.76496458 62.53838068 57.7611053 C54.2234547 57.75662165 45.90869287 57.73906007 37.59381682 57.7101047 C31.17169863 57.68851441 24.74962673 57.67840247 18.32747263 57.67706418 C14.48928329 57.6760144 10.65124823 57.67006998 6.813097 57.65224457 C3.20402749 57.63580915 -0.40477101 57.63358606 -4.01386452 57.64238358 C-5.97302844 57.64352545 -7.93218318 57.62977381 -9.89129639 57.6156311 C-11.05368332 57.62120026 -12.21607025 57.62676941 -13.41368103 57.63250732 C-14.93212569 57.63030748 -14.93212569 57.63030748 -16.48124599 57.6280632 C-19.35998589 58.05315803 -20.2401777 58.74140687 -22 61 Z " fill="#FECC65" transform="translate(30,87)"/>
<path d="M0 0 C4.57875 -0.12375 4.57875 -0.12375 9.25 -0.25 C10.20551758 -0.28641602 11.16103516 -0.32283203 12.14550781 -0.36035156 C18.36911322 -0.44199852 18.36911322 -0.44199852 21.609375 1.828125 C23 4 23 4 23 7 C28.28 7 33.56 7 39 7 C39 15.91 39 24.82 39 34 C36.133125 34.103125 33.26625 34.20625 30.3125 34.3125 C29.41829346 34.35802002 28.52408691 34.40354004 27.6027832 34.45043945 C23.21345892 34.526737 21.51043694 34.39657522 17.91796875 31.60546875 C16 29 16 29 16 27 C13.36 27 10.72 27 8 27 C8.495 30.96 8.495 30.96 9 35 C9.67270432 35.23945847 10.34540863 35.47891693 11.03849792 35.72563171 C17.43655632 38.00344043 23.83404332 40.28284751 30.23092175 42.5639677 C33.51814591 43.73612739 36.80557374 44.90770832 40.09350586 46.07788086 C43.88980837 47.42901258 47.68515385 48.78281532 51.48046875 50.13671875 C52.63830368 50.54838791 53.79613861 50.96005707 54.98905945 51.38420105 C57.22170079 52.18151919 59.45202773 52.98535336 61.67977905 53.79623413 C63.97716953 54.62916672 66.28183184 55.44221189 68.59194946 56.23916626 C70.32594498 56.85904922 70.32594498 56.85904922 72.0949707 57.49145508 C73.65221611 58.03471184 73.65221611 58.03471184 75.24092102 58.58894348 C79.0581138 60.54114376 81.10064144 63.20128288 83 67 C83.37766377 72.00404498 83.11200434 74.99885156 80 79 C76.72880631 82.04189443 74.46981764 82.37884565 70.05459595 82.39440918 C68.83771591 82.40575897 67.62083588 82.41710876 66.36708069 82.42880249 C65.02157527 82.42615924 63.67607046 82.42318802 62.33056641 82.41992188 C60.91115144 82.42726268 59.49174246 82.43584894 58.07234192 82.44558716 C54.2189402 82.46781244 50.36575226 82.47073331 46.51229525 82.46883965 C43.29414069 82.46871998 40.07603148 82.4772828 36.85788953 82.48561716 C29.26427842 82.50485537 21.67077724 82.50773376 14.07714844 82.50097656 C6.24717021 82.49433713 -1.58233676 82.51719489 -9.41221941 82.55429029 C-16.13763117 82.58499526 -22.86289142 82.59634642 -29.58837187 82.59245348 C-33.60388289 82.59038655 -37.61902732 82.59585584 -41.63447189 82.62034607 C-45.41200788 82.64262386 -49.18877852 82.64072774 -52.96631813 82.62041855 C-54.35060662 82.61701008 -55.73494672 82.62209082 -57.11916542 82.63640213 C-68.87110207 82.74949452 -68.87110207 82.74949452 -72.77676392 79.67248535 C-75.4899311 76.41106854 -76.41994313 74.2054123 -77 70 C-76.40764637 66.11679285 -75.83591599 63.84388208 -73.05297852 61.03442383 C-68.8564004 58.23793559 -64.46686753 56.76415006 -59.71484375 55.13671875 C-58.7039418 54.78164749 -57.69303986 54.42657623 -56.65150452 54.06074524 C-53.41668741 52.92696438 -50.17727652 51.80702036 -46.9375 50.6875 C-44.81673779 49.94687779 -42.69629178 49.20534952 -40.57617188 48.46289062 C-36.40701629 47.00439715 -32.23555233 45.55282922 -28.06201172 44.10693359 C-24.05355359 42.71710251 -20.05024248 41.31386224 -16.05126953 39.89697266 C-15.12407608 39.56921341 -14.19688263 39.24145416 -13.24159241 38.90376282 C-11.4995311 38.28725827 -9.758304 37.66838978 -8.01805115 37.04679871 C-2.22285235 35 -2.22285235 35 0 35 C0 23.45 0 11.9 0 0 Z M7 7 C7 10.96 7 14.92 7 19 C11.00254456 19.09181134 11.00254456 19.09181134 15 19 C16.25173779 17.96966611 16.25173779 17.96966611 16.1328125 15.75 C16.13023438 14.8425 16.12765625 13.935 16.125 13 C16.12757812 12.0925 16.13015625 11.185 16.1328125 10.25 C16.25173779 8.03033389 16.25173779 8.03033389 15 7 C12.32941149 6.85884839 9.67567762 6.95752893 7 7 Z M23 15 C22.90176063 16.66429051 22.87026369 18.33281931 22.875 20 C22.87242188 20.9075 22.86984375 21.815 22.8671875 22.75 C22.74826221 24.96966611 22.74826221 24.96966611 24 26 C26.33297433 26.04092937 28.66705225 26.04241723 31 26 C31 22.04 31 18.08 31 14 C26.67679914 13.49633499 26.67679914 13.49633499 23 15 Z M-10.18359375 45.80859375 C-11.40095718 46.24631607 -12.61832062 46.68403839 -13.87257385 47.13502502 C-17.09071431 48.29282745 -20.29092574 49.49387175 -23.48925781 50.70513916 C-26.71016328 51.91590497 -29.946511 53.08376202 -33.18164062 54.25585938 C-40.14024768 56.78700247 -47.07637341 59.37474955 -54 62 C-55.21575714 62.45827179 -56.43151428 62.91654358 -57.68411255 63.38870239 C-58.86738129 63.83801117 -60.05065002 64.28731995 -61.26977539 64.75024414 C-62.34457657 65.15755264 -63.41937775 65.56486115 -64.52674866 65.98451233 C-66.90295103 66.7744363 -66.90295103 66.7744363 -68 68 C-68.2500773 70.45809998 -68.2500773 70.45809998 -68 73 C-65.3599053 75.6400947 -64.18061524 75.25124494 -60.49597168 75.25396729 C-59.32654526 75.25960693 -58.15711884 75.26524658 -56.95225525 75.27105713 C-55.01812523 75.26498444 -55.01812523 75.26498444 -53.04492188 75.25878906 C-51.67842929 75.26149799 -50.31193817 75.26505837 -48.94544983 75.26940918 C-45.22857412 75.27854721 -41.51180912 75.27498315 -37.79493141 75.26865101 C-33.91076985 75.2635983 -30.02661797 75.26828042 -26.14245605 75.27142334 C-19.61887912 75.27506512 -13.09534742 75.27025835 -6.57177734 75.26074219 C0.97747628 75.24985721 8.52662189 75.25338264 16.0758729 75.264395 C22.54978566 75.27346185 29.02366585 75.27475611 35.49758291 75.26951766 C39.36755234 75.26639463 43.23747094 75.26599769 47.10743713 75.27259064 C50.74519995 75.27835476 54.38282308 75.27438449 58.02057076 75.26280212 C59.99779695 75.25888248 61.97503492 75.26484914 63.95225525 75.27105713 C65.70639488 75.26259766 65.70639488 75.26259766 67.49597168 75.25396729 C68.51656425 75.25321323 69.53715683 75.25245918 70.58867645 75.25168228 C73.18313658 75.23678387 73.18313658 75.23678387 75 73 C75.30615946 70.51400388 75.30615946 70.51400388 74 68 C67.78462276 64.47112945 61.21894406 62.15475399 54.484375 59.8125 C52.84604706 59.23592651 52.84604706 59.23592651 51.17462158 58.64770508 C47.70145454 57.42687555 44.22575184 56.21344815 40.75 55 C38.43082752 54.18535705 36.11181553 53.37025708 33.79296875 52.5546875 C25.88147224 49.76431148 25.88147224 49.76431148 17.94593811 47.04368591 C15.95291085 46.33759692 13.98443105 45.55876409 12.04515076 44.71620178 C3.52669861 41.23344846 -1.76966757 42.55480704 -10.18359375 45.80859375 Z " fill="#FECC65" transform="translate(77,0)"/>
</svg>
