<?xml version="1.0" encoding="UTF-8"?>
<svg version="1.1" xmlns="http://www.w3.org/2000/svg" width="512" height="512">
<path d="M0 0 C0.78734962 -0.00297112 1.57469925 -0.00594224 2.38590795 -0.0090034 C5.00275114 -0.01761892 7.61954821 -0.01919249 10.23640442 -0.02069092 C12.12107438 -0.02532384 14.00574342 -0.03034914 15.89041138 -0.03573608 C20.99341606 -0.04880881 26.09640762 -0.05529397 31.19942641 -0.05974674 C34.38822527 -0.0626833 37.57702058 -0.06678901 40.76581764 -0.07125092 C50.74559772 -0.08490687 60.72536964 -0.09458513 70.70515841 -0.09845281 C82.22233303 -0.10294132 93.73938942 -0.12053392 105.25652808 -0.1494534 C114.16540114 -0.17104762 123.07424085 -0.18115573 131.98313981 -0.18249393 C137.30240674 -0.18354276 142.62156225 -0.18946839 147.94080162 -0.20731354 C152.93868669 -0.22375705 157.93637606 -0.22596788 162.93427849 -0.21717453 C164.76889316 -0.21640239 166.60351821 -0.22077003 168.43810654 -0.23063278 C170.94098734 -0.24330064 173.44316937 -0.23750411 175.94604492 -0.22705078 C176.67308583 -0.23510719 177.40012674 -0.24316359 178.14919919 -0.25146413 C182.51171803 -0.2088003 185.35214289 0.38559792 188.782547 3.14044189 C189.88166248 6.43778835 189.8964926 8.87002935 189.88020325 12.33966064 C189.87698059 13.54815674 189.87375793 14.75665283 189.87043762 16.00177002 C189.86205872 17.26440674 189.85367981 18.52704346 189.845047 19.82794189 C189.84053528 21.10218018 189.83602356 22.37641846 189.83137512 23.68927002 C189.81957573 26.83970753 189.80311297 29.99005138 189.782547 33.14044189 C190.48597229 33.07187988 191.18939758 33.00331787 191.91413879 32.93267822 C197.47904999 32.40576411 203.00564886 31.94103941 208.595047 31.82794189 C210.43002747 31.77186768 210.43002747 31.77186768 212.30207825 31.71466064 C216.80393659 32.26539303 218.51131107 32.93892703 221.782547 36.14044189 C222.6937206 40.3466658 222.53893882 44.51598403 222.46369934 48.80352783 C222.4645755 50.10133682 222.46545166 51.39914581 222.46635437 52.73628235 C222.46807589 56.29221611 222.43280345 59.84693545 222.39091063 63.40258694 C222.35340114 67.11944355 222.34987815 70.83632805 222.34275818 74.55334473 C222.32410975 81.59063274 222.27487351 88.62736147 222.21466124 95.6644032 C222.1475954 103.67635629 222.11460704 111.6883361 222.08448863 119.70050001 C222.02177384 136.18080805 221.91623976 152.6605536 221.782547 169.14044189 C222.69045518 169.10854389 223.59836336 169.07664589 224.53378391 169.04378128 C250.95476745 168.12628192 277.36734958 167.92167771 303.80281067 167.90020752 C309.64853156 167.89461244 315.49403227 167.87026829 321.33968258 167.84223557 C325.88892298 167.82367499 330.43810781 167.81840823 334.98738289 167.81687164 C337.14635554 167.81385522 339.30532745 167.80586101 341.46426201 167.79268646 C344.45066664 167.77568395 347.43649487 167.77748603 350.42292786 167.78399658 C351.30216919 167.7747818 352.18141052 167.76556702 353.08729553 167.756073 C357.80027464 167.78835388 360.96782547 168.04872752 364.782547 171.14044189 C372.6400388 186.85542549 364.31869481 217.38256943 359.095047 233.39044189 C355.7699692 243.08259227 351.88756755 252.25638015 346.782547 261.14044189 C346.39308899 261.82074463 346.00363098 262.50104736 345.60237122 263.20196533 C340.46247226 272.05344675 334.90041392 279.74160654 327.782547 287.14044189 C326.63021273 288.48908089 325.48406591 289.84303848 324.345047 291.20294189 C312.83106356 304.32047097 298.10224917 314.03100929 282.782547 322.14044189 C281.67008606 322.73598877 280.55762512 323.33153564 279.41145325 323.94512939 C253.17874953 337.10534865 223.07944186 340.96061648 194.06144714 337.63136292 C193.25805593 337.53986119 192.45466473 337.44835947 191.62692833 337.35408497 C190.71395957 337.24833165 190.71395957 337.24833165 189.782547 337.14044189 C189.78531238 337.85827724 189.78807775 338.57611259 189.79092693 339.31570053 C189.85715501 356.77524275 189.90681208 374.2347531 189.93798351 391.69439316 C189.95345812 400.13771829 189.97455894 408.58095961 190.00886536 417.02423096 C190.03874959 424.38264593 190.05811768 431.74100022 190.06481248 439.09947419 C190.06872641 442.99642336 190.07793689 446.8931989 190.09973717 450.79009247 C190.120087 454.45739607 190.12638391 458.12445438 190.12187004 461.79180908 C190.12308996 463.78063076 190.13923997 465.76942567 190.1558075 467.75817871 C190.1516835 468.94165894 190.14755951 470.12513916 190.14331055 471.34448242 C190.14607593 472.37320339 190.1488413 473.40192436 190.15169048 474.4618187 C189.7238533 477.56634214 188.96136288 478.91543084 186.782547 481.14044189 C183.96211223 482.08058682 182.23932873 482.26889879 179.3200016 482.27745628 C177.94146757 482.2850681 177.94146757 482.2850681 176.53508437 482.29283369 C175.01832895 482.29358032 175.01832895 482.29358032 173.47093201 482.29434204 C172.39792229 482.29872429 171.32491257 482.30310655 170.21938741 482.3076216 C166.605836 482.32102991 162.99230899 482.32719298 159.3787384 482.33331299 C156.7953073 482.34121218 154.21187731 482.34948102 151.62844849 482.35809326 C143.86395243 482.38260971 136.09944998 482.39724154 128.33492714 482.41015333 C126.14246473 482.41386525 123.95000296 482.41783846 121.75754118 482.42190599 C108.14582989 482.44713806 94.53411759 482.46919345 80.92238808 482.48163414 C77.76998008 482.48456387 74.61757211 482.48752554 71.46516418 482.49053955 C70.68164056 482.4912856 69.89811693 482.49203165 69.09085016 482.49280031 C56.3908591 482.50546105 43.69100782 482.53869459 30.99108215 482.58034138 C17.95626904 482.62273661 4.92152756 482.6463262 -8.11335433 482.6515547 C-15.43365528 482.65497114 -22.75373763 482.66675371 -30.07397079 482.69965744 C-36.95716212 482.73054602 -43.83996602 482.73608842 -50.7232151 482.72427368 C-53.25284686 482.72405206 -55.78249579 482.73242987 -58.31206703 482.74992752 C-61.75913366 482.77247864 -65.20479891 482.7643882 -68.65187073 482.7484436 C-69.65857956 482.76232569 -70.6652884 482.77620778 -71.70250356 482.79051054 C-72.62674174 482.77993859 -73.55097993 482.76936665 -74.50322533 482.75847435 C-75.29863208 482.75983088 -76.09403884 482.76118741 -76.91354883 482.76258504 C-80.48140151 481.79912696 -81.98036093 480.02788636 -84.217453 477.14044189 C-84.84304816 473.91024548 -84.84304816 473.91024548 -84.84386539 470.17007542 C-84.850833 469.47724731 -84.85780061 468.7844192 -84.86497936 468.07059631 C-84.88225864 465.743265 -84.86384161 463.41759083 -84.84564209 461.09028625 C-84.85068603 459.40732089 -84.85791368 457.72436088 -84.86714023 456.04141325 C-84.88611148 451.41227172 -84.87380139 446.78365672 -84.8564173 442.15452826 C-84.84307216 437.16396936 -84.85847017 432.17348896 -84.87023926 427.18293762 C-84.88864195 417.40442027 -84.8800858 407.62610241 -84.86215103 397.84759123 C-84.84813854 389.90152247 -84.84422933 381.95550795 -84.84759331 374.00942802 C-84.84807075 372.87949043 -84.84854819 371.74955283 -84.8490401 370.58537469 C-84.85006641 368.29008074 -84.85112177 365.99478679 -84.85220587 363.69949286 C-84.86077835 343.39176468 -84.84408055 323.08413294 -84.81437683 302.77642822 C-84.78554195 283.06251981 -84.77845339 263.34875037 -84.79386902 243.63482666 C-84.81062382 222.1788853 -84.81467244 200.72300997 -84.79715866 179.2670669 C-84.79531423 176.97980178 -84.79347951 174.69253666 -84.79165459 172.40527153 C-84.7907425 171.27983375 -84.78983041 170.15439597 -84.78889068 168.99485402 C-84.78328051 161.05720219 -84.78659698 153.11958254 -84.79319954 145.18193245 C-84.80092502 135.51010325 -84.79420856 125.83841094 -84.7690245 116.16660935 C-84.75651081 111.23018838 -84.75040557 106.29398072 -84.76156616 101.35755157 C-84.7715861 96.8403955 -84.76319695 92.32366539 -84.73998498 87.80656128 C-84.73481358 86.17068659 -84.73640928 84.53477393 -84.74537963 82.89891566 C-84.7565487 80.67764847 -84.74316903 78.45782805 -84.72361088 76.23664951 C-84.7224194 75.00223104 -84.72122791 73.76781257 -84.72000033 72.49598747 C-83.91402923 67.11445895 -80.97698684 63.40261304 -76.779953 60.07794189 C-73.73708579 57.58189014 -70.97146027 54.96002077 -68.217453 52.14044189 C-67.17911316 51.1175708 -67.17911316 51.1175708 -66.11979675 50.07403564 C-62.61577745 46.6168146 -59.17475349 43.18075406 -56.029953 39.39044189 C-54.15554944 37.1348922 -52.24723458 35.23624095 -49.967453 33.39044189 C-47.08085301 31.25264903 -47.08085301 31.25264903 -45.217453 28.14044189 C-44.557453 28.14044189 -43.897453 28.14044189 -43.217453 28.14044189 C-42.722453 26.65544189 -42.722453 26.65544189 -42.217453 25.14044189 C-41.557453 25.14044189 -40.897453 25.14044189 -40.217453 25.14044189 C-39.949328 24.50106689 -39.681203 23.86169189 -39.404953 23.20294189 C-38.217453 21.14044189 -38.217453 21.14044189 -35.217453 20.14044189 C-34.722453 18.65544189 -34.722453 18.65544189 -34.217453 17.14044189 C-32.23788358 15.44955968 -30.23800104 13.78213718 -28.217453 12.14044189 C-27.887453 11.48044189 -27.557453 10.82044189 -27.217453 10.14044189 C-26.557453 10.14044189 -25.897453 10.14044189 -25.217453 10.14044189 C-25.217453 9.48044189 -25.217453 8.82044189 -25.217453 8.14044189 C-23.529953 6.44903564 -23.529953 6.44903564 -21.217453 4.57794189 C-20.474953 3.95790283 -19.732453 3.33786377 -18.967453 2.69903564 C-13.35578945 -0.48143844 -6.31713209 -0.00759866 0 0 Z M-2.217453 17.14044189 C-3.10138621 20.67617474 -3.33892965 23.2329983 -3.33097839 26.82696533 C-3.33090286 27.96784607 -3.33082733 29.10872681 -3.33074951 30.28417969 C-3.32558823 31.51033997 -3.32042694 32.73650024 -3.31510925 33.99981689 C-3.31369431 35.25933167 -3.31227936 36.51884644 -3.31082153 37.81652832 C-3.30617373 41.15709308 -3.29719582 44.49758911 -3.28611755 47.83813477 C-3.27586899 51.2500957 -3.27131654 54.66206374 -3.26628113 58.07403564 C-3.25525263 64.76285669 -3.23851489 71.45164533 -3.217453 78.14044189 C-3.83878113 78.4483667 -4.46010925 78.7562915 -5.1002655 79.07354736 C-6.44821374 79.75280634 -7.78157101 80.46245926 -9.092453 81.21075439 C-21.24366018 87.24168443 -37.06784949 84.4903834 -50.029953 82.57794189 C-55.39853565 82.0170452 -60.81964931 82.14044189 -66.217453 82.14044189 C-66.217453 208.53044189 -66.217453 334.92044189 -66.217453 465.14044189 C12.652547 465.14044189 91.522547 465.14044189 172.782547 465.14044189 C172.782547 421.25044189 172.782547 377.36044189 172.782547 332.14044189 C166.512547 329.83044189 160.242547 327.52044189 153.782547 325.14044189 C113.68697006 306.28953632 84.2318688 276.46148333 68.87239075 234.46856689 C56.56354107 196.88025176 58.93033348 152.7062275 76.70637512 117.18096924 C85.90485213 99.73975535 97.76700491 84.97658504 111.782547 71.14044189 C112.41934387 70.50622314 113.05614075 69.87200439 113.7122345 69.21856689 C129.95939692 53.9501492 152.24576056 45.70662637 172.782547 38.14044189 C172.782547 31.21044189 172.782547 24.28044189 172.782547 17.14044189 C115.032547 17.14044189 57.282547 17.14044189 -2.217453 17.14044189 Z M-24.38200378 34.04620361 C-25.02251678 34.68041229 -25.66302979 35.31462097 -26.32295227 35.9680481 C-27.01259064 36.66173492 -27.702229 37.35542175 -28.4127655 38.07012939 C-29.47393082 39.12842453 -29.47393082 39.12842453 -30.55653381 40.20809937 C-32.05355426 41.7037565 -33.54804272 43.20195152 -35.04020691 44.70245361 C-37.33277715 47.00572089 -39.63579437 49.29815025 -41.94010925 51.58966064 C-43.38996974 53.0408427 -44.83920971 54.49264501 -46.2877655 55.94512939 C-46.98145233 56.63476776 -47.67513916 57.32440613 -48.3898468 58.03494263 C-49.02405548 58.67545563 -49.65826416 59.31596863 -50.31169128 59.97589111 C-50.87413544 60.53992645 -51.43657959 61.10396179 -52.0160675 61.68508911 C-53.42965626 63.082977 -53.42965626 63.082977 -53.217453 65.14044189 C-41.997453 65.14044189 -30.777453 65.14044189 -19.217453 65.14044189 C-19.217453 53.92044189 -19.217453 42.70044189 -19.217453 31.14044189 C-21.9520706 31.14044189 -22.46556769 32.13517394 -24.38200378 34.04620361 Z M123.782547 83.14044189 C122.87891418 83.88423096 121.97528137 84.62802002 121.04426575 85.39434814 C116.1526009 89.59542501 111.83170988 94.12719261 107.782547 99.14044189 C107.08387512 100.00153564 106.38520325 100.86262939 105.6653595 101.74981689 C82.27504055 131.69589997 74.25293806 168.15830743 78.73445129 205.59942627 C81.85067358 227.94271519 90.57259228 254.76004847 108.782547 269.14044189 C109.61657043 268.42759033 110.45059387 267.71473877 111.30989075 266.98028564 C117.68982599 261.54397583 124.12982627 256.24164471 130.782547 251.14044189 C132.64234307 249.71023252 134.49647251 248.27262616 136.345047 246.82794189 C137.19196106 246.17180908 138.03887512 245.51567627 138.91145325 244.83966064 C139.52891418 244.27891846 140.14637512 243.71817627 140.782547 243.14044189 C140.782547 242.48044189 140.782547 241.82044189 140.782547 241.14044189 C141.648797 240.73825439 141.648797 240.73825439 142.532547 240.32794189 C144.83804742 239.11115 146.80310892 237.8371031 148.782547 236.14044189 C148.782547 235.48044189 148.782547 234.82044189 148.782547 234.14044189 C149.6178595 233.76919189 149.6178595 233.76919189 150.470047 233.39044189 C153.20665613 231.91119371 155.45905569 230.2057675 157.782547 228.14044189 C157.782547 227.48044189 157.782547 226.82044189 157.782547 226.14044189 C158.34917053 225.89688965 158.91579407 225.6533374 159.49958801 225.40240479 C164.26769584 222.76671349 167.89940381 218.40630763 171.720047 214.57794189 C172.42343704 213.87323761 172.42343704 213.87323761 173.14103699 213.15429688 C189.94000892 196.25166965 202.92260272 178.48648263 208.782547 155.14044189 C209.06183044 154.14427856 209.06183044 154.14427856 209.34675598 153.12799072 C211.5668332 144.08085523 211.13061785 134.70464319 211.095047 125.45294189 C211.09388885 124.52614624 211.09273071 123.59935059 211.09153748 122.64447021 C211.04968618 105.64297577 209.94348519 89.00977933 207.782547 72.14044189 C207.63849426 71.00429443 207.49444153 69.86814697 207.34602356 68.6975708 C206.54966927 62.50280119 205.69667241 56.31889238 204.782547 50.14044189 C175.49386923 49.16796627 145.6813052 65.0524487 123.782547 83.14044189 Z M159.1966095 234.43121338 C157.59170396 236.02459502 155.98234108 237.61350003 154.3684845 239.19781494 C142.49600594 250.85396882 132.22004274 262.38350518 124.157547 277.01544189 C123.82110168 277.62001221 123.48465637 278.22458252 123.13801575 278.84747314 C122.34533081 280.27430604 121.56262062 281.70667529 120.782547 283.14044189 C136.5377456 303.74577026 166.95042337 315.56261634 191.96955872 319.36700439 C227.0198907 323.77567344 263.15167575 316.84073542 291.688797 295.24517822 C296.21784349 291.70561366 300.54215672 287.95179304 304.73176575 284.01544189 C306.782547 282.14044189 306.782547 282.14044189 309.05207825 280.51544189 C309.62313293 280.06169189 310.19418762 279.60794189 310.782547 279.14044189 C310.782547 278.48044189 310.782547 277.82044189 310.782547 277.14044189 C311.772547 276.81044189 312.762547 276.48044189 313.782547 276.14044189 C336.49999517 251.47336198 348.17811803 218.30248034 347.782547 185.14044189 C269.43419336 175.09653091 216.97234508 176.94365074 159.1966095 234.43121338 Z " fill="#FCCF67" transform="translate(99.21745300292969,14.85955810546875)"/>
<path d="M0 0 C20.0800073 6.88600375 38.16944626 17.94231764 53.58984375 32.4609375 C55.72596667 34.46100164 57.91397472 36.33177412 60.16796875 38.1953125 C65.11072975 42.50257566 69.03792283 47.59229391 73.04296875 52.7578125 C73.69007813 53.55445313 74.3371875 54.35109375 75.00390625 55.171875 C89.64389317 73.99471533 98.41479998 97.33435495 102.04296875 120.7578125 C102.23826172 121.99337891 102.23826172 121.99337891 102.4375 123.25390625 C102.72789011 125.42602426 102.91029186 127.57053924 103.04296875 129.7578125 C103.15705078 131.26021484 103.15705078 131.26021484 103.2734375 132.79296875 C103.34498047 134.38431641 103.34498047 134.38431641 103.41796875 136.0078125 C103.49144531 137.46960938 103.49144531 137.46960938 103.56640625 138.9609375 C102.82968865 142.89742854 101.09630488 144.23488954 98.04296875 146.7578125 C95.08347321 147.38143158 95.08347321 147.38143158 91.74279785 147.37927246 C90.47261307 147.39048126 89.20242828 147.40169006 87.89375305 147.41323853 C86.49361725 147.40032851 85.09348602 147.38691443 83.69335938 147.37304688 C82.21306218 147.37654931 80.73276874 147.38220928 79.25248718 147.38986206 C75.2378624 147.40410245 71.22392316 147.38705639 67.20936394 147.36357689 C63.00631856 147.34345972 58.80330141 147.3493479 54.60021973 147.35168457 C47.54212141 147.35163101 40.48429088 147.33187976 33.42626953 147.29980469 C25.26858926 147.26291222 17.11125975 147.25412922 8.95350695 147.2611022 C1.10300495 147.26740956 -6.74737687 147.2566486 -14.59785461 147.23713684 C-17.93746148 147.2289665 -21.2770069 147.22625262 -24.61662292 147.22782898 C-28.55000276 147.22870856 -32.48304976 147.21447228 -36.41634178 147.18860245 C-37.85908075 147.18144625 -39.30185514 147.17935441 -40.74460793 147.18272018 C-42.71538144 147.1864405 -44.68616199 147.16983094 -46.65686035 147.15222168 C-48.31049465 147.14662861 -48.31049465 147.14662861 -49.99753571 147.14092255 C-53.35498173 146.70629736 -55.24797118 145.75687375 -57.95703125 143.7578125 C-59.28386818 141.10413864 -59.09205852 139.09503573 -59.10420227 136.12211609 C-59.11135757 134.92336853 -59.11851288 133.72462097 -59.12588501 132.48954773 C-59.12872538 131.15408351 -59.1314371 129.81861901 -59.1340332 128.4831543 C-59.14029702 127.08212108 -59.14694375 125.68108953 -59.15394592 124.28005981 C-59.17136287 120.46798642 -59.18190952 116.65592557 -59.19015145 112.84382224 C-59.19530005 110.46278716 -59.20137584 108.08175598 -59.20766258 105.70072365 C-59.22671645 98.25285051 -59.24094727 90.8049873 -59.24927455 83.35709447 C-59.25904928 74.75632137 -59.28537392 66.15580548 -59.32577544 57.55512303 C-59.35592259 50.90962208 -59.37074207 44.26419491 -59.37405556 37.61862689 C-59.37640763 33.64841834 -59.38538802 29.6784845 -59.41051674 25.70834923 C-59.43377831 21.97282223 -59.43803873 18.23775118 -59.42775536 14.50217056 C-59.42702306 12.47896171 -59.44612771 10.45577611 -59.46582031 8.43266296 C-59.4588765 7.22545593 -59.45193268 6.0182489 -59.44477844 4.77445984 C-59.4471668 3.72713527 -59.44955515 2.6798107 -59.45201588 1.60074902 C-58.82968416 -1.97360355 -57.44163377 -3.64851746 -54.95703125 -6.2421875 C-41.31676113 -13.06232256 -13.63717299 -4.40434201 0 0 Z M-40.95703125 10.7578125 C-40.95703125 50.0278125 -40.95703125 89.2978125 -40.95703125 129.7578125 C0.29296875 129.7578125 41.54296875 129.7578125 84.04296875 129.7578125 C82.85115481 115.83356433 82.85115481 115.83356433 79.48046875 102.6953125 C79.22362305 101.96473633 78.96677734 101.23416016 78.70214844 100.48144531 C71.67364408 81.33596385 60.0744926 65.33141603 46.04296875 50.7578125 C45.00462891 49.60732422 45.00462891 49.60732422 43.9453125 48.43359375 C24.72402787 27.80497036 -2.30602093 16.66807645 -29.42578125 11.45703125 C-30.13154297 11.32127686 -30.83730469 11.18552246 -31.56445312 11.0456543 C-34.67435749 10.67151376 -37.82470204 10.7578125 -40.95703125 10.7578125 Z " fill="#FCCF67" transform="translate(393.95703125,22.2421875)"/>
<path d="M0 0 C2.47248424 2.18906222 4.81988926 4.45630406 7.15234375 6.79296875 C7.76335937 7.33308594 8.374375 7.87320312 9.00390625 8.4296875 C21.5936487 19.84093807 28.4522776 36.59380492 29.33984375 53.328125 C29.69043822 74.51717825 25.40266271 94.1216908 10.57958984 109.82958984 C4.69064673 115.84539811 -1.37940178 120.81281556 -8.84765625 124.79296875 C-9.71777344 125.2621875 -10.58789062 125.73140625 -11.484375 126.21484375 C-29.88510172 135.34805117 -51.22724352 134.70453793 -70.47265625 128.60546875 C-79.63432072 125.51996442 -87.82639457 120.43470277 -94.84765625 113.79296875 C-94.84765625 113.13296875 -94.84765625 112.47296875 -94.84765625 111.79296875 C-95.50765625 111.79296875 -96.16765625 111.79296875 -96.84765625 111.79296875 C-109.04906595 99.87797712 -116.76948019 80.94891823 -117.08886719 64.03369141 C-117.17736098 42.73126832 -111.90980473 23.71408797 -96.78515625 8.10546875 C-71.95281881 -16.49304254 -28.3380184 -21.96293607 0 0 Z M-83.84765625 20.79296875 C-94.99167114 34.55167968 -100.14679834 49.03802685 -98.84765625 66.79296875 C-97.00383103 80.0096319 -91.10726361 91.17882687 -81.84765625 100.79296875 C-81.18765625 100.79296875 -80.52765625 100.79296875 -79.84765625 100.79296875 C-79.84765625 101.45296875 -79.84765625 102.11296875 -79.84765625 102.79296875 C-67.11685546 112.41920437 -53.69562419 116.12163677 -37.84765625 114.79296875 C-26.4216232 112.95048778 -17.22496079 108.38344383 -7.84765625 101.79296875 C-6.85765625 101.13296875 -5.86765625 100.47296875 -4.84765625 99.79296875 C-4.84765625 99.13296875 -4.84765625 98.47296875 -4.84765625 97.79296875 C-4.18765625 97.79296875 -3.52765625 97.79296875 -2.84765625 97.79296875 C7.390827 85.24913165 12.16886833 70.90676583 11.15234375 54.79296875 C9.204461 40.13432566 3.23420184 26.52992605 -8.1953125 16.79296875 C-32.17701593 -0.84175453 -61.72012346 0.75183015 -83.84765625 20.79296875 Z " fill="#FCCF67" transform="translate(195.84765625,332.20703125)"/>
<path d="M0 0 C5.61 0 11.22 0 17 0 C17 2.97 17 5.94 17 9 C17.73992187 9.09796875 18.47984375 9.1959375 19.2421875 9.296875 C24.66403748 10.67921636 28.42790772 15.1822683 32 19.3125 C33.57831451 23.55422024 33.1801244 27.49689004 33 32 C27.06 32 21.12 32 15 32 C14.505 29.525 14.505 29.525 14 27 C9.9899066 26.82135369 9.9899066 26.82135369 6 27 C5.34 27.66 4.68 28.32 4 29 C4.32326553 32.59679066 4.32326553 32.59679066 5 36 C6.51980469 36.47179687 6.51980469 36.47179687 8.0703125 36.953125 C9.42203235 37.3849244 10.77358614 37.81724388 12.125 38.25 C12.79015625 38.45496094 13.4553125 38.65992188 14.140625 38.87109375 C21.75067903 41.33317005 27.47302749 45.37824829 32 52 C34.92134282 58.90499213 35.18791528 67.2352575 32.8125 74.375 C31.2237757 78.02981178 29.03654374 80.39724822 26 83 C25.154375 83.763125 24.30875 84.52625 23.4375 85.3125 C21 87 21 87 17 87 C17 89.97 17 92.94 17 96 C11.39 96 5.78 96 0 96 C0 93.03 0 90.06 0 87 C-1.2684375 86.7215625 -1.2684375 86.7215625 -2.5625 86.4375 C-8.24077745 84.06294761 -12.59805706 79.70880391 -15 74 C-16.22222222 67.66666667 -16.22222222 67.66666667 -15 64 C-9.06 64 -3.12 64 3 64 C3.33 65.65 3.66 67.3 4 69 C8.0100934 69.17864631 8.0100934 69.17864631 12 69 C12.99 68.01 12.99 68.01 14 67 C13.67673447 63.40320934 13.67673447 63.40320934 13 60 C11.48019531 59.52820313 11.48019531 59.52820313 9.9296875 59.046875 C8.57796765 58.6150756 7.22641386 58.18275612 5.875 57.75 C5.20984375 57.54503906 4.5446875 57.34007812 3.859375 57.12890625 C-3.75067903 54.66682995 -9.47302749 50.62175171 -14 44 C-16.92417455 37.08831469 -17.21399814 28.74770499 -14.75 21.625 C-12.17193396 15.74940763 -8.56628276 12.1976518 -3 9 C-2.01 9 -1.02 9 0 9 C0 6.03 0 3.06 0 0 Z " fill="#FCCF67" transform="translate(143,344)"/>
<path d="M0 0 C42.24 0 84.48 0 128 0 C128 5.28 128 10.56 128 16 C85.76 16 43.52 16 0 16 C0 10.72 0 5.44 0 0 Z " fill="#FCCF67" transform="translate(368,480)"/>
<path d="M0 0 C42.24 0 84.48 0 128 0 C128 5.28 128 10.56 128 16 C85.76 16 43.52 16 0 16 C0 10.72 0 5.44 0 0 Z " fill="#FCCE66" transform="translate(368,432)"/>
<path d="M0 0 C42.24 0 84.48 0 128 0 C128 5.28 128 10.56 128 16 C85.76 16 43.52 16 0 16 C0 10.72 0 5.44 0 0 Z " fill="#FCCE66" transform="translate(368,384)"/>
<path d="M0 0 C26.4 0 52.8 0 80 0 C80 5.28 80 10.56 80 16 C53.6 16 27.2 16 0 16 C0 10.72 0 5.44 0 0 Z " fill="#FCCF66" transform="translate(64,272)"/>
<path d="M0 0 C26.4 0 52.8 0 80 0 C80 5.28 80 10.56 80 16 C53.6 16 27.2 16 0 16 C0 10.72 0 5.44 0 0 Z " fill="#FCCE67" transform="translate(64,224)"/>
<path d="M0 0 C26.4 0 52.8 0 80 0 C80 5.28 80 10.56 80 16 C53.6 16 27.2 16 0 16 C0 10.72 0 5.44 0 0 Z " fill="#FCCF66" transform="translate(64,176)"/>
<path d="M0 0 C26.4 0 52.8 0 80 0 C80 5.28 80 10.56 80 16 C53.6 16 27.2 16 0 16 C0 10.72 0 5.44 0 0 Z " fill="#FCCE66" transform="translate(64,128)"/>
<path d="M0 0 C10.56 0 21.12 0 32 0 C32 5.28 32 10.56 32 16 C21.44 16 10.88 16 0 16 C0 10.72 0 5.44 0 0 Z " fill="#FCCF67" transform="translate(320,480)"/>
<path d="M0 0 C10.56 0 21.12 0 32 0 C32 5.28 32 10.56 32 16 C21.44 16 10.88 16 0 16 C0 10.72 0 5.44 0 0 Z " fill="#FCCE67" transform="translate(320,432)"/>
<path d="M0 0 C10.56 0 21.12 0 32 0 C32 5.28 32 10.56 32 16 C21.44 16 10.88 16 0 16 C0 10.72 0 5.44 0 0 Z " fill="#FCCF66" transform="translate(320,384)"/>
</svg>
