<?xml version="1.0" standalone="no"?>
<!DOCTYPE svg PUBLIC "-//W3C//DTD SVG 20010904//EN"
 "http://www.w3.org/TR/2001/REC-SVG-20010904/DTD/svg10.dtd">
<svg version="1.0" xmlns="http://www.w3.org/2000/svg"
 width="512.000000pt" height="512.000000pt" viewBox="0 0 512.000000 512.000000"
 preserveAspectRatio="xMidYMid meet">

<g transform="translate(0.000000,512.000000) scale(0.100000,-0.100000)"
fill="#000000" stroke="none">
<path d="M2315 5109 c-800 -83 -1501 -518 -1927 -1196 -487 -774 -516 -1777
-75 -2578 200 -364 487 -676 841 -913 238 -159 600 -311 876 -366 214 -43 295
-51 530 -51 236 0 333 10 532 51 880 184 1615 842 1898 1702 92 278 125 491
125 802 0 301 -32 513 -116 775 -124 390 -330 728 -622 1024 -399 404 -893
653 -1462 737 -123 18 -478 26 -600 13z m434 -1095 c226 -52 406 -188 502
-381 l44 -88 3 223 2 222 76 0 75 0 -4 -1092 c-4 -1189 -3 -1153 -62 -1318
-88 -245 -253 -397 -499 -460 -349 -89 -750 -16 -937 170 -96 96 -160 243
-170 395 l-4 50 72 3 c72 3 72 3 78 -25 42 -204 102 -303 238 -387 133 -82
261 -111 456 -103 178 7 269 34 392 113 174 114 261 276 279 524 12 160 13
580 1 580 -5 0 -14 -14 -21 -31 -18 -42 -83 -142 -128 -196 -190 -227 -566
-311 -897 -202 -359 119 -568 483 -568 989 0 176 18 295 65 430 124 351 359
555 693 599 86 12 229 5 314 -15z"/>
<path d="M2390 3885 c-91 -21 -219 -86 -284 -146 -64 -58 -131 -155 -180 -260
-190 -403 -108 -953 180 -1218 115 -106 267 -161 441 -161 266 0 458 104 591
319 95 155 141 317 149 532 9 210 -21 375 -97 537 -99 211 -239 335 -435 388
-84 22 -283 27 -365 9z"/>
</g>
</svg>
